STARTFONT 2.1
FONT -Adobe-Utopia-Bold-I-Normal--15-140-75-75-P-82-ISO10646-1
SIZE 14 75 75
FONTBOUNDINGBOX 20 23 -2 -7
COMMENT $Xorg: $
COMMENT ISO10646-1 extension by Markus Kuhn <mkuhn@acm.org>, 2001-03-20
STARTPROPERTIES 28
FOUNDRY "Adobe"
FAMILY_NAME "Utopia"
WEIGHT_NAME "Bold"
SLANT "I"
SETWIDTH_NAME "Normal"
ADD_STYLE_NAME ""
PIXEL_SIZE 15
POINT_SIZE 140
RESOLUTION_X 75
RESOLUTION_Y 75
SPACING "P"
AVERAGE_WIDTH 82
CHARSET_REGISTRY "ISO10646"
CHARSET_ENCODING "1"
CAP_HEIGHT 10
X_HEIGHT 7
RELATIVE_SETWIDTH 50
RELATIVE_WEIGHT 70
WEIGHT 208
FACE_NAME "Utopia Bold Italic"
COPYRIGHT "Copyright (c) 1989, 1991 Adobe Systems Incorporated.  All rights reserved."
NOTICE "Utopia is a registered trademark of Adobe Systems Incorporated."
DESTINATION 0
FONT_ASCENT 12
FONT_DESCENT 3
DEFAULT_CHAR 0
_ADOBE_PSFONT "Utopia-BoldItalic"
_DEC_DEVICE_FONTNAMES "PS=Utopia-BoldItalic"
ENDPROPERTIES
CHARS 723
STARTCHAR char0
ENCODING 0
SWIDTH 800 0
DWIDTH 12 0
BBX 13 9 -1 0
BITMAP
AAA8
0000
8008
0000
8008
0000
8008
0000
AAA8
ENDCHAR
STARTCHAR space
ENCODING 32
SWIDTH 210 0
DWIDTH 3 0
BBX 0 0 0 0
BITMAP
ENDCHAR
STARTCHAR exclam
ENCODING 33
SWIDTH 285 0
DWIDTH 4 0
BBX 4 10 0 0
BITMAP
30
70
70
60
60
40
00
00
C0
C0
ENDCHAR
STARTCHAR quotedbl
ENCODING 34
SWIDTH 455 0
DWIDTH 8 0
BBX 5 5 2 5
BITMAP
D8
D8
90
90
90
ENDCHAR
STARTCHAR numbersign
ENCODING 35
SWIDTH 560 0
DWIDTH 8 0
BBX 8 9 0 1
BITMAP
12
12
7F
24
24
24
FE
48
48
ENDCHAR
STARTCHAR dollar
ENCODING 36
SWIDTH 560 0
DWIDTH 8 0
BBX 8 12 0 -1
BITMAP
04
1E
2F
6B
78
38
1C
1E
D6
F4
78
20
ENDCHAR
STARTCHAR percent
ENCODING 37
SWIDTH 896 0
DWIDTH 13 0
BBX 12 10 0 0
BITMAP
3840
4FC0
CC80
C900
7200
04E0
0930
1330
2320
41C0
ENDCHAR
STARTCHAR ampersand
ENCODING 38
SWIDTH 752 0
DWIDTH 12 0
BBX 11 10 0 0
BITMAP
1F00
3980
3100
1A00
3C60
7E60
E740
C380
E3C0
7CE0
ENDCHAR
STARTCHAR quotesingle
ENCODING 39
SWIDTH 246 0
DWIDTH 5 0
BBX 2 5 2 5
BITMAP
C0
C0
80
80
80
ENDCHAR
STARTCHAR parenleft
ENCODING 40
SWIDTH 350 0
DWIDTH 5 0
BBX 5 12 0 -2
BITMAP
18
30
60
60
C0
C0
C0
C0
C0
C0
C0
60
ENDCHAR
STARTCHAR parenright
ENCODING 41
SWIDTH 350 0
DWIDTH 5 0
BBX 5 12 -1 -2
BITMAP
30
18
18
18
18
18
18
18
30
30
60
C0
ENDCHAR
STARTCHAR asterisk
ENCODING 42
SWIDTH 500 0
DWIDTH 7 0
BBX 6 6 1 4
BITMAP
10
54
38
70
A8
20
ENDCHAR
STARTCHAR plus
ENCODING 43
SWIDTH 600 0
DWIDTH 9 0
BBX 8 7 0 0
BITMAP
18
18
18
FF
18
18
18
ENDCHAR
STARTCHAR comma
ENCODING 44
SWIDTH 280 0
DWIDTH 4 0
BBX 3 4 -1 -2
BITMAP
60
60
40
80
ENDCHAR
STARTCHAR hyphen
ENCODING 45
SWIDTH 392 0
DWIDTH 6 0
BBX 4 1 1 3
BITMAP
F0
ENDCHAR
STARTCHAR period
ENCODING 46
SWIDTH 280 0
DWIDTH 4 0
BBX 2 2 0 0
BITMAP
C0
C0
ENDCHAR
STARTCHAR slash
ENCODING 47
SWIDTH 260 0
DWIDTH 6 0
BBX 4 10 1 0
BITMAP
30
30
30
60
60
60
60
C0
C0
C0
ENDCHAR
STARTCHAR zero
ENCODING 48
SWIDTH 560 0
DWIDTH 8 0
BBX 8 10 0 0
BITMAP
1E
37
77
67
E7
E7
E6
EE
EC
78
ENDCHAR
STARTCHAR one
ENCODING 49
SWIDTH 560 0
DWIDTH 8 0
BBX 6 10 0 0
BITMAP
1C
3C
1C
38
38
38
38
70
70
F8
ENDCHAR
STARTCHAR two
ENCODING 50
SWIDTH 560 0
DWIDTH 8 0
BBX 8 10 0 0
BITMAP
3E
77
67
07
0E
38
60
C2
FE
FE
ENDCHAR
STARTCHAR three
ENCODING 51
SWIDTH 560 0
DWIDTH 8 0
BBX 8 10 0 0
BITMAP
3E
77
67
0E
3C
0E
0E
CE
EC
78
ENDCHAR
STARTCHAR four
ENCODING 52
SWIDTH 560 0
DWIDTH 8 0
BBX 8 10 0 0
BITMAP
1C
1C
38
38
76
6E
CE
FF
1C
3E
ENDCHAR
STARTCHAR five
ENCODING 53
SWIDTH 560 0
DWIDTH 8 0
BBX 8 10 0 0
BITMAP
3F
3E
20
40
7C
0E
0E
CE
EC
78
ENDCHAR
STARTCHAR six
ENCODING 54
SWIDTH 560 0
DWIDTH 8 0
BBX 8 10 0 0
BITMAP
1E
37
73
60
FC
EE
E6
E6
EC
78
ENDCHAR
STARTCHAR seven
ENCODING 55
SWIDTH 560 0
DWIDTH 8 0
BBX 7 10 1 0
BITMAP
FE
FE
8C
18
18
38
38
70
70
70
ENDCHAR
STARTCHAR eight
ENCODING 56
SWIDTH 560 0
DWIDTH 8 0
BBX 8 10 0 0
BITMAP
1E
33
73
77
3E
7C
EE
CE
CC
78
ENDCHAR
STARTCHAR nine
ENCODING 57
SWIDTH 560 0
DWIDTH 8 0
BBX 8 10 0 0
BITMAP
1E
37
67
67
77
3F
06
CE
EC
78
ENDCHAR
STARTCHAR colon
ENCODING 58
SWIDTH 280 0
DWIDTH 4 0
BBX 3 7 0 0
BITMAP
60
60
00
00
00
C0
C0
ENDCHAR
STARTCHAR semicolon
ENCODING 59
SWIDTH 280 0
DWIDTH 4 0
BBX 4 9 -1 -2
BITMAP
30
30
00
00
00
60
60
40
80
ENDCHAR
STARTCHAR less
ENCODING 60
SWIDTH 600 0
DWIDTH 9 0
BBX 7 7 1 0
BITMAP
06
1E
78
E0
78
1E
06
ENDCHAR
STARTCHAR equal
ENCODING 61
SWIDTH 600 0
DWIDTH 9 0
BBX 8 4 0 2
BITMAP
FF
00
00
FF
ENDCHAR
STARTCHAR greater
ENCODING 62
SWIDTH 600 0
DWIDTH 9 0
BBX 7 7 1 0
BITMAP
C0
F0
3C
0E
3C
F0
C0
ENDCHAR
STARTCHAR question
ENCODING 63
SWIDTH 454 0
DWIDTH 7 0
BBX 6 10 1 0
BITMAP
78
DC
9C
38
70
60
00
00
C0
C0
ENDCHAR
STARTCHAR at
ENCODING 64
SWIDTH 828 0
DWIDTH 13 0
BBX 12 10 0 0
BITMAP
1FC0
3060
63B0
CDB0
D9B0
DB30
DB60
CDC0
6000
3F80
ENDCHAR
STARTCHAR A
ENCODING 65
SWIDTH 634 0
DWIDTH 9 0
BBX 10 10 -2 0
BITMAP
0300
0700
0700
0B00
1300
1380
3F80
4380
4380
E7C0
ENDCHAR
STARTCHAR B
ENCODING 66
SWIDTH 680 0
DWIDTH 10 0
BBX 11 10 -1 0
BITMAP
3FC0
1CE0
1CE0
39C0
3F80
39C0
39C0
71C0
7380
FF00
ENDCHAR
STARTCHAR C
ENCODING 67
SWIDTH 672 0
DWIDTH 10 0
BBX 9 10 0 0
BITMAP
0F80
3980
7080
7000
E000
E000
E000
E100
6300
3E00
ENDCHAR
STARTCHAR D
ENCODING 68
SWIDTH 774 0
DWIDTH 12 0
BBX 12 10 -1 0
BITMAP
3FC0
1C60
1C70
3870
3870
3870
38E0
70E0
71C0
FF00
ENDCHAR
STARTCHAR E
ENCODING 69
SWIDTH 622 0
DWIDTH 9 0
BBX 10 10 -1 0
BITMAP
3FC0
1CC0
1C40
3900
3F00
3900
3800
7080
7180
FF80
ENDCHAR
STARTCHAR F
ENCODING 70
SWIDTH 585 0
DWIDTH 9 0
BBX 10 10 -1 0
BITMAP
3FC0
1CC0
1C40
3900
3F00
3900
3800
7000
7000
F800
ENDCHAR
STARTCHAR G
ENCODING 71
SWIDTH 726 0
DWIDTH 10 0
BBX 10 10 0 0
BITMAP
0F80
3980
7080
7000
E000
E7C0
E380
E380
6780
3E00
ENDCHAR
STARTCHAR H
ENCODING 72
SWIDTH 800 0
DWIDTH 12 0
BBX 13 10 -1 0
BITMAP
3EF8
1C70
1C70
38E0
3FE0
38E0
38E0
71C0
71C0
FBE0
ENDCHAR
STARTCHAR I
ENCODING 73
SWIDTH 386 0
DWIDTH 6 0
BBX 7 10 -1 0
BITMAP
3E
1C
1C
38
38
38
38
70
70
F8
ENDCHAR
STARTCHAR J
ENCODING 74
SWIDTH 388 0
DWIDTH 6 0
BBX 8 12 -2 -2
BITMAP
1F
0E
0E
1C
1C
1C
1C
38
38
38
30
E0
ENDCHAR
STARTCHAR K
ENCODING 75
SWIDTH 688 0
DWIDTH 12 0
BBX 12 10 0 0
BITMAP
3EF0
1C60
1C80
3900
3B00
3F00
3B80
7380
71C0
F9E0
ENDCHAR
STARTCHAR L
ENCODING 76
SWIDTH 586 0
DWIDTH 9 0
BBX 9 10 -1 0
BITMAP
3E00
1C00
1C00
3800
3800
3800
3800
7080
7180
FF80
ENDCHAR
STARTCHAR M
ENCODING 77
SWIDTH 921 0
DWIDTH 14 0
BBX 15 10 -1 0
BITMAP
3C1E
1C3C
1C5C
2E78
2EB8
2F38
2F38
4670
4670
E4F8
ENDCHAR
STARTCHAR N
ENCODING 78
SWIDTH 741 0
DWIDTH 11 0
BBX 12 10 -1 0
BITMAP
3C70
1C20
1E20
3E40
2F40
27C0
27C0
4380
4380
E180
ENDCHAR
STARTCHAR O
ENCODING 79
SWIDTH 761 0
DWIDTH 12 0
BBX 11 10 0 0
BITMAP
0F80
38C0
70E0
70E0
F0E0
E1E0
E1C0
E1C0
6380
3E00
ENDCHAR
STARTCHAR P
ENCODING 80
SWIDTH 660 0
DWIDTH 10 0
BBX 11 10 -1 0
BITMAP
3FC0
1CE0
1CE0
38E0
39C0
3F80
3800
7000
7000
F800
ENDCHAR
STARTCHAR Q
ENCODING 81
SWIDTH 761 0
DWIDTH 12 0
BBX 11 13 0 -3
BITMAP
0F80
38C0
70E0
70E0
F0E0
E1E0
E1C0
E1C0
6380
3E00
0E00
0700
0380
ENDCHAR
STARTCHAR R
ENCODING 82
SWIDTH 681 0
DWIDTH 10 0
BBX 11 10 -1 0
BITMAP
3FC0
1CE0
1CE0
39C0
3F80
3B80
3B80
71C0
71C0
F9E0
ENDCHAR
STARTCHAR S
ENCODING 83
SWIDTH 551 0
DWIDTH 8 0
BBX 9 10 -1 0
BITMAP
0F80
1980
3100
3800
3C00
1E00
0E00
4600
CC00
F800
ENDCHAR
STARTCHAR T
ENCODING 84
SWIDTH 616 0
DWIDTH 9 0
BBX 9 10 0 0
BITMAP
FF80
DD80
9C80
3800
3800
3800
3800
7000
7000
F800
ENDCHAR
STARTCHAR U
ENCODING 85
SWIDTH 776 0
DWIDTH 12 0
BBX 12 10 0 0
BITMAP
7DF0
38E0
38E0
71C0
71C0
71C0
E380
E380
E380
7F00
ENDCHAR
STARTCHAR V
ENCODING 86
SWIDTH 630 0
DWIDTH 9 0
BBX 10 10 0 0
BITMAP
F9C0
7080
7080
7100
7200
3A00
3C00
3800
3800
3000
ENDCHAR
STARTCHAR W
ENCODING 87
SWIDTH 920 0
DWIDTH 14 0
BBX 15 10 0 0
BITMAP
F9CE
71C4
71C4
73C8
73C8
34D0
34D0
38E0
38E0
30C0
ENDCHAR
STARTCHAR X
ENCODING 88
SWIDTH 630 0
DWIDTH 10 0
BBX 11 10 -1 0
BITMAP
3EE0
1C40
1C80
0F00
0E00
0E00
1E00
2700
4700
EF80
ENDCHAR
STARTCHAR Y
ENCODING 89
SWIDTH 622 0
DWIDTH 9 0
BBX 9 10 1 0
BITMAP
FB80
7100
7200
7400
3800
3800
3800
7000
7000
F800
ENDCHAR
STARTCHAR Z
ENCODING 90
SWIDTH 618 0
DWIDTH 9 0
BBX 10 10 -1 0
BITMAP
3FC0
3380
2700
0700
0E00
1C00
3800
3900
7300
FF00
ENDCHAR
STARTCHAR bracketleft
ENCODING 91
SWIDTH 350 0
DWIDTH 5 0
BBX 5 12 0 -2
BITMAP
38
30
30
30
60
60
60
60
C0
C0
C0
E0
ENDCHAR
STARTCHAR backslash
ENCODING 92
SWIDTH 460 0
DWIDTH 6 0
BBX 4 10 1 0
BITMAP
C0
C0
C0
60
60
60
60
30
30
30
ENDCHAR
STARTCHAR bracketright
ENCODING 93
SWIDTH 350 0
DWIDTH 5 0
BBX 5 12 -1 -2
BITMAP
38
18
18
18
30
30
30
30
60
60
60
E0
ENDCHAR
STARTCHAR asciicircum
ENCODING 94
SWIDTH 600 0
DWIDTH 9 0
BBX 7 7 1 3
BITMAP
10
38
38
6C
6C
C6
C6
ENDCHAR
STARTCHAR underscore
ENCODING 95
SWIDTH 500 0
DWIDTH 7 0
BBX 7 1 0 -2
BITMAP
FE
ENDCHAR
STARTCHAR grave
ENCODING 96
SWIDTH 400 0
DWIDTH 6 0
BBX 3 2 1 8
BITMAP
C0
60
ENDCHAR
STARTCHAR a
ENCODING 97
SWIDTH 596 0
DWIDTH 9 0
BBX 9 7 0 0
BITMAP
3F00
7700
6700
EE00
EE00
FE80
6700
ENDCHAR
STARTCHAR b
ENCODING 98
SWIDTH 586 0
DWIDTH 9 0
BBX 8 11 0 0
BITMAP
78
38
38
70
76
7F
77
E7
E6
EE
FC
ENDCHAR
STARTCHAR c
ENCODING 99
SWIDTH 456 0
DWIDTH 7 0
BBX 6 7 0 0
BITMAP
3C
74
60
E0
E4
E8
70
ENDCHAR
STARTCHAR d
ENCODING 100
SWIDTH 609 0
DWIDTH 9 0
BBX 9 11 0 0
BITMAP
0780
0380
0380
0380
3F00
7700
6700
E700
EE00
FE80
6700
ENDCHAR
STARTCHAR e
ENCODING 101
SWIDTH 476 0
DWIDTH 7 0
BBX 6 7 0 0
BITMAP
3C
74
68
F0
E4
E8
70
ENDCHAR
STARTCHAR f
ENCODING 102
SWIDTH 348 0
DWIDTH 5 0
BBX 9 14 -2 -3
BITMAP
0380
0680
0E00
0E00
3F00
1C00
1C00
1C00
3800
3800
3800
3800
B000
E000
ENDCHAR
STARTCHAR g
ENCODING 103
SWIDTH 522 0
DWIDTH 8 0
BBX 9 10 -1 -3
BITMAP
1F80
3700
7700
7600
3C00
3800
3E00
4F00
C700
7E00
ENDCHAR
STARTCHAR h
ENCODING 104
SWIDTH 629 0
DWIDTH 9 0
BBX 9 11 0 0
BITMAP
7800
3800
3800
3800
7600
7F00
7700
6700
EE00
EE80
E700
ENDCHAR
STARTCHAR i
ENCODING 105
SWIDTH 339 0
DWIDTH 5 0
BBX 5 10 0 0
BITMAP
38
38
00
F0
70
70
E0
E0
E8
70
ENDCHAR
STARTCHAR j
ENCODING 106
SWIDTH 333 0
DWIDTH 5 0
BBX 7 13 -2 -3
BITMAP
0E
0E
00
3C
1C
1C
1C
38
38
38
38
B8
F0
ENDCHAR
STARTCHAR k
ENCODING 107
SWIDTH 570 0
DWIDTH 8 0
BBX 9 11 0 0
BITMAP
7800
3800
3800
7000
7300
7700
7C00
EC00
EE00
E780
E700
ENDCHAR
STARTCHAR l
ENCODING 108
SWIDTH 327 0
DWIDTH 5 0
BBX 5 11 0 0
BITMAP
78
38
38
70
70
70
70
E0
E0
E8
70
ENDCHAR
STARTCHAR m
ENCODING 109
SWIDTH 914 0
DWIDTH 13 0
BBX 13 7 0 0
BITMAP
F660
7FF0
7770
7770
EEE0
EEE8
EE70
ENDCHAR
STARTCHAR n
ENCODING 110
SWIDTH 635 0
DWIDTH 9 0
BBX 9 7 0 0
BITMAP
F600
7F00
7700
7700
EE00
EE80
E700
ENDCHAR
STARTCHAR o
ENCODING 111
SWIDTH 562 0
DWIDTH 8 0
BBX 8 7 0 0
BITMAP
3E
77
67
E7
E6
EE
7C
ENDCHAR
STARTCHAR p
ENCODING 112
SWIDTH 606 0
DWIDTH 9 0
BBX 9 10 -1 -3
BITMAP
7B00
3F80
3B80
7380
7300
7700
7E00
E000
E000
E000
ENDCHAR
STARTCHAR q
ENCODING 113
SWIDTH 584 0
DWIDTH 9 0
BBX 8 10 0 -3
BITMAP
3F
77
67
EE
EE
FE
6E
1C
1C
1C
ENDCHAR
STARTCHAR r
ENCODING 114
SWIDTH 440 0
DWIDTH 6 0
BBX 6 7 0 0
BITMAP
EC
7C
70
70
E0
E0
E0
ENDCHAR
STARTCHAR s
ENCODING 115
SWIDTH 417 0
DWIDTH 6 0
BBX 7 7 -1 0
BITMAP
1C
36
78
3C
1C
D8
70
ENDCHAR
STARTCHAR t
ENCODING 116
SWIDTH 359 0
DWIDTH 5 0
BBX 5 9 0 0
BITMAP
30
70
F8
70
70
E0
E0
E8
70
ENDCHAR
STARTCHAR u
ENCODING 117
SWIDTH 634 0
DWIDTH 9 0
BBX 9 7 0 0
BITMAP
F700
7700
7700
EE00
EE00
FE80
6700
ENDCHAR
STARTCHAR v
ENCODING 118
SWIDTH 518 0
DWIDTH 8 0
BBX 8 7 0 0
BITMAP
F3
73
72
E6
E4
E8
70
ENDCHAR
STARTCHAR w
ENCODING 119
SWIDTH 795 0
DWIDTH 12 0
BBX 12 7 0 0
BITMAP
F330
7330
7730
E760
E640
EE80
7300
ENDCHAR
STARTCHAR x
ENCODING 120
SWIDTH 516 0
DWIDTH 8 0
BBX 9 7 -1 0
BITMAP
7980
3A80
3A00
1C00
2E00
AE00
CF00
ENDCHAR
STARTCHAR y
ENCODING 121
SWIDTH 489 0
DWIDTH 7 0
BBX 8 10 -1 -3
BITMAP
7B
3B
3A
3A
3C
18
18
10
E0
C0
ENDCHAR
STARTCHAR z
ENCODING 122
SWIDTH 466 0
DWIDTH 7 0
BBX 6 7 0 0
BITMAP
7C
FC
98
30
64
FC
B8
ENDCHAR
STARTCHAR braceleft
ENCODING 123
SWIDTH 340 0
DWIDTH 5 0
BBX 5 12 0 -2
BITMAP
18
30
30
30
60
C0
60
60
C0
C0
C0
60
ENDCHAR
STARTCHAR bar
ENCODING 124
SWIDTH 265 0
DWIDTH 4 0
BBX 2 10 1 0
BITMAP
C0
C0
C0
C0
C0
C0
C0
C0
C0
C0
ENDCHAR
STARTCHAR braceright
ENCODING 125
SWIDTH 340 0
DWIDTH 5 0
BBX 5 12 -1 -2
BITMAP
30
18
18
30
30
18
30
60
60
60
60
C0
ENDCHAR
STARTCHAR asciitilde
ENCODING 126
SWIDTH 600 0
DWIDTH 9 0
BBX 8 2 0 3
BITMAP
79
9E
ENDCHAR
STARTCHAR space
ENCODING 160
SWIDTH 210 0
DWIDTH 3 0
BBX 0 0 0 0
BITMAP
ENDCHAR
STARTCHAR exclamdown
ENCODING 161
SWIDTH 285 0
DWIDTH 4 0
BBX 4 10 -1 -3
BITMAP
30
30
00
00
20
60
60
E0
E0
C0
ENDCHAR
STARTCHAR cent
ENCODING 162
SWIDTH 560 0
DWIDTH 8 0
BBX 8 10 0 0
BITMAP
04
3E
6F
EB
C8
D0
D2
F4
78
20
ENDCHAR
STARTCHAR sterling
ENCODING 163
SWIDTH 560 0
DWIDTH 8 0
BBX 8 10 0 0
BITMAP
1E
37
73
70
38
7E
38
71
FF
FE
ENDCHAR
STARTCHAR currency
ENCODING 164
SWIDTH 560 0
DWIDTH 8 0
BBX 7 9 0 1
BITMAP
82
FE
6C
C6
C6
C6
6C
FE
82
ENDCHAR
STARTCHAR yen
ENCODING 165
SWIDTH 560 0
DWIDTH 8 0
BBX 8 10 0 0
BITMAP
F7
72
76
74
FE
38
FC
70
70
F8
ENDCHAR
STARTCHAR brokenbar
ENCODING 166
SWIDTH 265 0
DWIDTH 4 0
BBX 2 10 1 0
BITMAP
C0
C0
C0
C0
00
00
C0
C0
C0
C0
ENDCHAR
STARTCHAR section
ENCODING 167
SWIDTH 568 0
DWIDTH 8 0
BBX 7 12 0 -2
BITMAP
1E
32
30
38
5C
CE
E6
74
38
18
98
F0
ENDCHAR
STARTCHAR dieresis
ENCODING 168
SWIDTH 400 0
DWIDTH 6 0
BBX 5 2 1 8
BITMAP
D8
D8
ENDCHAR
STARTCHAR copyright
ENCODING 169
SWIDTH 824 0
DWIDTH 12 0
BBX 11 10 0 0
BITMAP
1F00
2080
4E40
9920
9020
9020
9920
4E40
2080
1F00
ENDCHAR
STARTCHAR ordfeminine
ENCODING 170
SWIDTH 444 0
DWIDTH 6 0
BBX 6 5 0 4
BITMAP
3C
6C
D8
F8
DC
ENDCHAR
STARTCHAR guillemotleft
ENCODING 171
SWIDTH 560 0
DWIDTH 8 0
BBX 7 6 0 0
BITMAP
12
24
48
D8
48
24
ENDCHAR
STARTCHAR logicalnot
ENCODING 172
SWIDTH 600 0
DWIDTH 9 0
BBX 8 4 0 2
BITMAP
FF
03
03
03
ENDCHAR
STARTCHAR hyphen
ENCODING 173
SWIDTH 392 0
DWIDTH 6 0
BBX 4 1 1 3
BITMAP
F0
ENDCHAR
STARTCHAR registered
ENCODING 174
SWIDTH 824 0
DWIDTH 12 0
BBX 11 10 0 0
BITMAP
1F00
2080
5E40
8920
8920
8E20
8920
5940
2080
1F00
ENDCHAR
STARTCHAR macron
ENCODING 175
SWIDTH 400 0
DWIDTH 6 0
BBX 5 1 1 8
BITMAP
F8
ENDCHAR
STARTCHAR degree
ENCODING 176
SWIDTH 375 0
DWIDTH 6 0
BBX 4 4 1 6
BITMAP
60
90
90
60
ENDCHAR
STARTCHAR plusminus
ENCODING 177
SWIDTH 600 0
DWIDTH 9 0
BBX 8 8 0 0
BITMAP
18
18
18
FF
18
18
00
FF
ENDCHAR
STARTCHAR twosuperior
ENCODING 178
SWIDTH 402 0
DWIDTH 6 0
BBX 5 6 1 4
BITMAP
70
D8
30
60
C0
F0
ENDCHAR
STARTCHAR threesuperior
ENCODING 179
SWIDTH 402 0
DWIDTH 6 0
BBX 6 6 0 4
BITMAP
38
0C
38
18
D8
70
ENDCHAR
STARTCHAR acute
ENCODING 180
SWIDTH 400 0
DWIDTH 6 0
BBX 3 2 1 8
BITMAP
60
C0
ENDCHAR
STARTCHAR mu
ENCODING 181
SWIDTH 634 0
DWIDTH 10 0
BBX 11 10 -1 -3
BITMAP
79C0
39C0
39C0
7380
7780
7BA0
71C0
E000
E000
E000
ENDCHAR
STARTCHAR paragraph
ENCODING 182
SWIDTH 580 0
DWIDTH 9 0
BBX 8 12 1 -2
BITMAP
37
76
F6
F6
EC
EC
6C
0C
18
18
18
38
ENDCHAR
STARTCHAR periodcentered
ENCODING 183
SWIDTH 280 0
DWIDTH 4 0
BBX 4 3 0 3
BITMAP
60
F0
60
ENDCHAR
STARTCHAR cedilla
ENCODING 184
SWIDTH 400 0
DWIDTH 5 0
BBX 3 3 1 -3
BITMAP
40
20
E0
ENDCHAR
STARTCHAR onesuperior
ENCODING 185
SWIDTH 402 0
DWIDTH 6 0
BBX 4 6 1 4
BITMAP
70
30
30
60
60
F0
ENDCHAR
STARTCHAR ordmasculine
ENCODING 186
SWIDTH 412 0
DWIDTH 6 0
BBX 6 5 0 4
BITMAP
38
6C
CC
D8
70
ENDCHAR
STARTCHAR guillemotright
ENCODING 187
SWIDTH 560 0
DWIDTH 8 0
BBX 7 6 0 0
BITMAP
48
24
36
24
48
90
ENDCHAR
STARTCHAR onequarter
ENCODING 188
SWIDTH 940 0
DWIDTH 13 0
BBX 12 10 0 0
BITMAP
7100
3100
3200
64C0
64C0
F9A0
0960
1260
23F0
20C0
ENDCHAR
STARTCHAR onehalf
ENCODING 189
SWIDTH 940 0
DWIDTH 13 0
BBX 12 10 0 0
BITMAP
7080
3080
3100
6200
62E0
F5B0
0460
08C0
1180
11E0
ENDCHAR
STARTCHAR threequarters
ENCODING 190
SWIDTH 940 0
DWIDTH 13 0
BBX 12 10 0 0
BITMAP
3880
0C80
3900
1AC0
DAC0
75A0
0560
0A60
13F0
10C0
ENDCHAR
STARTCHAR questiondown
ENCODING 191
SWIDTH 454 0
DWIDTH 7 0
BBX 6 10 -1 -3
BITMAP
0C
0C
00
00
18
38
70
E4
EC
78
ENDCHAR
STARTCHAR Agrave
ENCODING 192
SWIDTH 634 0
DWIDTH 9 0
BBX 10 12 -2 0
BITMAP
0600
0300
0000
0300
0700
0B00
0B00
1380
3F80
2380
4380
E7C0
ENDCHAR
STARTCHAR Aacute
ENCODING 193
SWIDTH 634 0
DWIDTH 9 0
BBX 10 12 -2 0
BITMAP
0180
0300
0000
0300
0700
0B00
0B00
1380
3F80
2380
4380
E7C0
ENDCHAR
STARTCHAR Acircumflex
ENCODING 194
SWIDTH 634 0
DWIDTH 9 0
BBX 10 12 -2 0
BITMAP
0300
0580
0000
0300
0700
0B00
0B00
1380
3F80
2380
4380
E7C0
ENDCHAR
STARTCHAR Atilde
ENCODING 195
SWIDTH 634 0
DWIDTH 9 0
BBX 10 12 -2 0
BITMAP
0340
0580
0000
0300
0700
0B00
0B00
1380
3F80
2380
4380
E7C0
ENDCHAR
STARTCHAR Adieresis
ENCODING 196
SWIDTH 634 0
DWIDTH 9 0
BBX 10 12 -2 0
BITMAP
06C0
06C0
0000
0300
0700
0B00
0B00
1380
3F80
2380
4380
E7C0
ENDCHAR
STARTCHAR Aring
ENCODING 197
SWIDTH 634 0
DWIDTH 9 0
BBX 10 12 -2 0
BITMAP
0300
0480
0300
0300
0700
0B00
0B00
1380
3F80
2380
4380
E7C0
ENDCHAR
STARTCHAR AE
ENCODING 198
SWIDTH 890 0
DWIDTH 13 0
BBX 15 10 -2 0
BITMAP
03FE
01E6
02E2
05C8
09F8
09C8
1FC0
2384
438C
E7FC
ENDCHAR
STARTCHAR Ccedilla
ENCODING 199
SWIDTH 672 0
DWIDTH 10 0
BBX 9 13 0 -3
BITMAP
0F80
3980
7080
7000
E000
E000
E000
E100
6300
3E00
1000
0800
3800
ENDCHAR
STARTCHAR Egrave
ENCODING 200
SWIDTH 622 0
DWIDTH 9 0
BBX 10 12 -1 0
BITMAP
0600
0300
0000
3FC0
1CC0
1C40
3900
3F00
3900
7080
7180
FF80
ENDCHAR
STARTCHAR Eacute
ENCODING 201
SWIDTH 622 0
DWIDTH 9 0
BBX 10 12 -1 0
BITMAP
0180
0300
0000
3FC0
1CC0
1C40
3900
3F00
3900
7080
7180
FF80
ENDCHAR
STARTCHAR Ecircumflex
ENCODING 202
SWIDTH 622 0
DWIDTH 9 0
BBX 10 12 -1 0
BITMAP
0300
0580
0000
3FC0
1CC0
1C40
3900
3F00
3900
7080
7180
FF80
ENDCHAR
STARTCHAR Edieresis
ENCODING 203
SWIDTH 622 0
DWIDTH 9 0
BBX 10 12 -1 0
BITMAP
0D80
0D80
0000
3FC0
1CC0
1C40
3900
3F00
3900
7080
7180
FF80
ENDCHAR
STARTCHAR Igrave
ENCODING 204
SWIDTH 386 0
DWIDTH 6 0
BBX 7 12 -1 0
BITMAP
18
0C
00
3E
1C
1C
38
38
38
70
70
F8
ENDCHAR
STARTCHAR Iacute
ENCODING 205
SWIDTH 386 0
DWIDTH 6 0
BBX 7 12 -1 0
BITMAP
06
0C
00
3E
1C
1C
38
38
38
70
70
F8
ENDCHAR
STARTCHAR Icircumflex
ENCODING 206
SWIDTH 386 0
DWIDTH 6 0
BBX 7 12 -1 0
BITMAP
0C
16
00
3E
1C
1C
38
38
38
70
70
F8
ENDCHAR
STARTCHAR Idieresis
ENCODING 207
SWIDTH 386 0
DWIDTH 6 0
BBX 7 12 -1 0
BITMAP
36
36
00
3E
1C
1C
38
38
38
70
70
F8
ENDCHAR
STARTCHAR Eth
ENCODING 208
SWIDTH 780 0
DWIDTH 12 0
BBX 12 10 -1 0
BITMAP
3FC0
1C60
1C70
3870
7E70
3870
38E0
70E0
71C0
FF00
ENDCHAR
STARTCHAR Ntilde
ENCODING 209
SWIDTH 741 0
DWIDTH 11 0
BBX 12 12 -1 0
BITMAP
0340
0580
0000
3C70
1C20
1E20
2E40
2740
27C0
4380
4380
E180
ENDCHAR
STARTCHAR Ograve
ENCODING 210
SWIDTH 761 0
DWIDTH 12 0
BBX 11 12 0 0
BITMAP
0600
0300
0000
0F80
38C0
70E0
70E0
F1E0
E1C0
E1C0
6380
3E00
ENDCHAR
STARTCHAR Oacute
ENCODING 211
SWIDTH 761 0
DWIDTH 12 0
BBX 11 12 0 0
BITMAP
0180
0300
0000
0F80
38C0
70E0
70E0
F1E0
E1C0
E1C0
6380
3E00
ENDCHAR
STARTCHAR Ocircumflex
ENCODING 212
SWIDTH 761 0
DWIDTH 12 0
BBX 11 12 0 0
BITMAP
0300
0580
0000
0F80
38C0
70E0
70E0
F1E0
E1C0
E1C0
6380
3E00
ENDCHAR
STARTCHAR Otilde
ENCODING 213
SWIDTH 761 0
DWIDTH 12 0
BBX 11 12 0 0
BITMAP
0680
0B00
0000
0F80
38C0
70E0
70E0
F1E0
E1C0
E1C0
6380
3E00
ENDCHAR
STARTCHAR Odieresis
ENCODING 214
SWIDTH 761 0
DWIDTH 12 0
BBX 11 12 0 0
BITMAP
0D80
0D80
0000
0F80
38C0
70E0
70E0
F1E0
E1C0
E1C0
6380
3E00
ENDCHAR
STARTCHAR multiply
ENCODING 215
SWIDTH 600 0
DWIDTH 9 0
BBX 8 7 0 0
BITMAP
C3
66
3C
18
3C
66
C3
ENDCHAR
STARTCHAR Oslash
ENCODING 216
SWIDTH 761 0
DWIDTH 11 0
BBX 11 12 0 -1
BITMAP
0080
0F80
39C0
72E0
72E0
E4E0
E4E0
E9C0
E9C0
7380
3E00
2000
ENDCHAR
STARTCHAR Ugrave
ENCODING 217
SWIDTH 776 0
DWIDTH 12 0
BBX 12 12 0 0
BITMAP
0600
0300
0000
7DF0
38E0
38E0
71C0
71C0
71C0
E380
E380
7F00
ENDCHAR
STARTCHAR Uacute
ENCODING 218
SWIDTH 776 0
DWIDTH 12 0
BBX 12 12 0 0
BITMAP
0180
0300
0000
7DF0
38E0
38E0
71C0
71C0
71C0
E380
E380
7F00
ENDCHAR
STARTCHAR Ucircumflex
ENCODING 219
SWIDTH 776 0
DWIDTH 12 0
BBX 12 12 0 0
BITMAP
0300
0580
0000
7DF0
38E0
38E0
71C0
71C0
71C0
E380
E380
7F00
ENDCHAR
STARTCHAR Udieresis
ENCODING 220
SWIDTH 776 0
DWIDTH 12 0
BBX 12 12 0 0
BITMAP
06C0
06C0
0000
7DF0
38E0
38E0
71C0
71C0
71C0
E380
E380
7F00
ENDCHAR
STARTCHAR Yacute
ENCODING 221
SWIDTH 622 0
DWIDTH 9 0
BBX 9 12 1 0
BITMAP
0600
0C00
0000
FB80
7100
7200
7400
3800
3800
7000
7000
F800
ENDCHAR
STARTCHAR Thorn
ENCODING 222
SWIDTH 629 0
DWIDTH 9 0
BBX 10 10 -1 0
BITMAP
3E00
1C00
1F80
39C0
39C0
39C0
3B80
7F00
7000
F800
ENDCHAR
STARTCHAR germandbls
ENCODING 223
SWIDTH 628 0
DWIDTH 9 0
BBX 11 14 -2 -3
BITMAP
03C0
0660
0E60
0E60
3CC0
1D80
1DC0
1CE0
38E0
3AE0
3BC0
3800
B000
E000
ENDCHAR
STARTCHAR agrave
ENCODING 224
SWIDTH 596 0
DWIDTH 9 0
BBX 9 10 0 0
BITMAP
1800
0C00
0000
3F00
7700
6700
EE00
EE00
FE80
6700
ENDCHAR
STARTCHAR aacute
ENCODING 225
SWIDTH 596 0
DWIDTH 9 0
BBX 9 10 0 0
BITMAP
0600
0C00
0000
3F00
7700
6700
EE00
EE00
FE80
6700
ENDCHAR
STARTCHAR acircumflex
ENCODING 226
SWIDTH 596 0
DWIDTH 9 0
BBX 9 10 0 0
BITMAP
0C00
1600
0000
3F00
7700
6700
EE00
EE00
FE80
6700
ENDCHAR
STARTCHAR atilde
ENCODING 227
SWIDTH 596 0
DWIDTH 9 0
BBX 9 10 0 0
BITMAP
0D00
1600
0000
3F00
7700
6700
EE00
EE00
FE80
6700
ENDCHAR
STARTCHAR adieresis
ENCODING 228
SWIDTH 596 0
DWIDTH 9 0
BBX 9 10 0 0
BITMAP
1B00
1B00
0000
3F00
7700
6700
EE00
EE00
FE80
6700
ENDCHAR
STARTCHAR aring
ENCODING 229
SWIDTH 596 0
DWIDTH 9 0
BBX 9 11 0 0
BITMAP
0C00
1200
0C00
0000
3F00
7700
6700
EE00
EE00
FE80
6700
ENDCHAR
STARTCHAR ae
ENCODING 230
SWIDTH 789 0
DWIDTH 12 0
BBX 11 8 0 0
BITMAP
0200
3EE0
77A0
E740
EF80
EF20
F740
6380
ENDCHAR
STARTCHAR ccedilla
ENCODING 231
SWIDTH 456 0
DWIDTH 7 0
BBX 6 10 0 -3
BITMAP
3C
74
60
E0
E4
E8
70
40
20
E0
ENDCHAR
STARTCHAR egrave
ENCODING 232
SWIDTH 476 0
DWIDTH 7 0
BBX 6 10 0 0
BITMAP
30
18
00
3C
74
68
F0
E4
E8
70
ENDCHAR
STARTCHAR eacute
ENCODING 233
SWIDTH 476 0
DWIDTH 7 0
BBX 6 10 0 0
BITMAP
0C
18
00
3C
74
68
F0
E4
E8
70
ENDCHAR
STARTCHAR ecircumflex
ENCODING 234
SWIDTH 476 0
DWIDTH 7 0
BBX 6 10 0 0
BITMAP
18
2C
00
3C
74
68
F0
E4
E8
70
ENDCHAR
STARTCHAR edieresis
ENCODING 235
SWIDTH 476 0
DWIDTH 7 0
BBX 7 10 0 0
BITMAP
36
36
00
3C
74
68
F0
E4
E8
70
ENDCHAR
STARTCHAR igrave
ENCODING 236
SWIDTH 339 0
DWIDTH 5 0
BBX 5 10 0 0
BITMAP
60
30
00
F0
70
70
E0
E0
E8
70
ENDCHAR
STARTCHAR iacute
ENCODING 237
SWIDTH 339 0
DWIDTH 5 0
BBX 5 10 0 0
BITMAP
18
30
00
F0
70
70
E0
E0
E8
70
ENDCHAR
STARTCHAR icircumflex
ENCODING 238
SWIDTH 339 0
DWIDTH 5 0
BBX 5 10 0 0
BITMAP
30
58
00
F0
70
70
E0
E0
E8
70
ENDCHAR
STARTCHAR idieresis
ENCODING 239
SWIDTH 339 0
DWIDTH 5 0
BBX 5 10 0 0
BITMAP
D8
D8
00
F0
70
70
E0
E0
E8
70
ENDCHAR
STARTCHAR eth
ENCODING 240
SWIDTH 562 0
DWIDTH 9 0
BBX 8 11 0 0
BITMAP
3A
1C
2E
06
3F
77
67
E7
E6
EE
7C
ENDCHAR
STARTCHAR ntilde
ENCODING 241
SWIDTH 635 0
DWIDTH 9 0
BBX 9 10 0 0
BITMAP
1A00
2C00
0000
F600
7F00
7700
7700
EE00
EE80
E700
ENDCHAR
STARTCHAR ograve
ENCODING 242
SWIDTH 562 0
DWIDTH 8 0
BBX 8 10 0 0
BITMAP
18
0C
00
3E
77
67
E7
E6
EE
7C
ENDCHAR
STARTCHAR oacute
ENCODING 243
SWIDTH 562 0
DWIDTH 8 0
BBX 8 10 0 0
BITMAP
06
0C
00
3E
77
67
E7
E6
EE
7C
ENDCHAR
STARTCHAR ocircumflex
ENCODING 244
SWIDTH 562 0
DWIDTH 8 0
BBX 8 10 0 0
BITMAP
0C
16
00
3E
77
67
E7
E6
EE
7C
ENDCHAR
STARTCHAR otilde
ENCODING 245
SWIDTH 562 0
DWIDTH 8 0
BBX 8 10 0 0
BITMAP
1A
2C
00
3E
77
67
E7
E6
EE
7C
ENDCHAR
STARTCHAR odieresis
ENCODING 246
SWIDTH 562 0
DWIDTH 8 0
BBX 8 10 0 0
BITMAP
36
36
00
3E
77
67
E7
E6
EE
7C
ENDCHAR
STARTCHAR divide
ENCODING 247
SWIDTH 600 0
DWIDTH 9 0
BBX 8 7 0 0
BITMAP
18
18
00
FF
00
18
18
ENDCHAR
STARTCHAR oslash
ENCODING 248
SWIDTH 562 0
DWIDTH 8 0
BBX 10 7 -1 0
BITMAP
1F40
3B80
7780
7B80
7380
7700
BE00
ENDCHAR
STARTCHAR ugrave
ENCODING 249
SWIDTH 634 0
DWIDTH 9 0
BBX 9 10 0 0
BITMAP
3000
1800
0000
F700
7700
7700
EE00
EE00
FE80
6700
ENDCHAR
STARTCHAR uacute
ENCODING 250
SWIDTH 634 0
DWIDTH 9 0
BBX 9 10 0 0
BITMAP
0C00
1800
0000
F700
7700
7700
EE00
EE00
FE80
6700
ENDCHAR
STARTCHAR ucircumflex
ENCODING 251
SWIDTH 634 0
DWIDTH 9 0
BBX 9 10 0 0
BITMAP
1800
2C00
0000
F700
7700
7700
EE00
EE00
FE80
6700
ENDCHAR
STARTCHAR udieresis
ENCODING 252
SWIDTH 634 0
DWIDTH 9 0
BBX 9 10 0 0
BITMAP
3600
3600
0000
F700
7700
7700
EE00
EE00
FE80
6700
ENDCHAR
STARTCHAR yacute
ENCODING 253
SWIDTH 489 0
DWIDTH 7 0
BBX 8 13 -1 -3
BITMAP
06
0C
00
7B
3B
3A
3A
3C
18
18
10
E0
C0
ENDCHAR
STARTCHAR thorn
ENCODING 254
SWIDTH 600 0
DWIDTH 9 0
BBX 9 14 -1 -3
BITMAP
3C00
1C00
1C00
3800
3B00
3F80
3B80
7380
7300
7700
7E00
E000
E000
E000
ENDCHAR
STARTCHAR ydieresis
ENCODING 255
SWIDTH 489 0
DWIDTH 7 0
BBX 8 13 -1 -3
BITMAP
1B
1B
00
7B
3B
3A
3A
3C
18
18
10
E0
C0
ENDCHAR
STARTCHAR Amacron
ENCODING 256
SWIDTH 634 0
DWIDTH 9 0
BBX 10 12 -2 0
BITMAP
0F80
0000
0300
0700
0700
0B00
1300
1380
3F80
4380
4380
E7C0
ENDCHAR
STARTCHAR amacron
ENCODING 257
SWIDTH 596 0
DWIDTH 9 0
BBX 9 9 0 0
BITMAP
3E00
0000
3F00
7700
6700
EE00
EE00
FE80
6700
ENDCHAR
STARTCHAR Abreve
ENCODING 258
SWIDTH 634 0
DWIDTH 9 0
BBX 10 13 -2 0
BITMAP
0880
0700
0000
0300
0700
0700
0B00
1300
1380
3F80
4380
4380
E7C0
ENDCHAR
STARTCHAR abreve
ENCODING 259
SWIDTH 596 0
DWIDTH 9 0
BBX 9 10 0 0
BITMAP
2200
1C00
0000
3F00
7700
6700
EE00
EE00
FE80
6700
ENDCHAR
STARTCHAR Aogonek
ENCODING 260
SWIDTH 634 0
DWIDTH 9 0
BBX 10 13 -2 -3
BITMAP
0300
0700
0700
0B00
1300
1380
3F80
4380
4380
E7C0
0400
0800
0C00
ENDCHAR
STARTCHAR aogonek
ENCODING 261
SWIDTH 596 0
DWIDTH 9 0
BBX 9 10 0 -3
BITMAP
3F00
7700
6700
EE00
EE00
FE80
6700
0800
1000
1800
ENDCHAR
STARTCHAR Cacute
ENCODING 262
SWIDTH 672 0
DWIDTH 10 0
BBX 9 13 0 0
BITMAP
0600
0C00
0000
0F80
3980
7080
7000
E000
E000
E000
E100
6300
3E00
ENDCHAR
STARTCHAR cacute
ENCODING 263
SWIDTH 456 0
DWIDTH 7 0
BBX 6 10 0 0
BITMAP
18
30
00
3C
74
60
E0
E4
E8
70
ENDCHAR
STARTCHAR Ccircumflex
ENCODING 264
SWIDTH 672 0
DWIDTH 10 0
BBX 9 13 0 0
BITMAP
0C00
1600
0000
0F80
3980
7080
7000
E000
E000
E000
E100
6300
3E00
ENDCHAR
STARTCHAR ccircumflex
ENCODING 265
SWIDTH 456 0
DWIDTH 7 0
BBX 6 10 0 0
BITMAP
30
58
00
3C
74
60
E0
E4
E8
70
ENDCHAR
STARTCHAR Cdotaccent
ENCODING 266
SWIDTH 672 0
DWIDTH 10 0
BBX 9 13 0 0
BITMAP
0C00
0C00
0000
0F80
3980
7080
7000
E000
E000
E000
E100
6300
3E00
ENDCHAR
STARTCHAR cdotaccent
ENCODING 267
SWIDTH 456 0
DWIDTH 7 0
BBX 6 10 0 0
BITMAP
30
30
00
3C
74
60
E0
E4
E8
70
ENDCHAR
STARTCHAR Ccaron
ENCODING 268
SWIDTH 672 0
DWIDTH 10 0
BBX 9 13 0 0
BITMAP
1A00
0C00
0000
0F80
3980
7080
7000
E000
E000
E000
E100
6300
3E00
ENDCHAR
STARTCHAR ccaron
ENCODING 269
SWIDTH 456 0
DWIDTH 7 0
BBX 6 10 0 0
BITMAP
68
30
00
3C
74
60
E0
E4
E8
70
ENDCHAR
STARTCHAR Dcaron
ENCODING 270
SWIDTH 774 0
DWIDTH 12 0
BBX 12 13 -1 0
BITMAP
0D00
0600
0000
3FC0
1C60
1C70
3870
3870
3870
38E0
70E0
71C0
FF00
ENDCHAR
STARTCHAR dcaron
ENCODING 271
SWIDTH 825 0
DWIDTH 13 0
BBX 12 11 0 0
BITMAP
0780
03B0
03B0
03A0
3F40
7700
6700
E700
EE00
FE80
6700
ENDCHAR
STARTCHAR Dcroat
ENCODING 272
SWIDTH 780 0
DWIDTH 12 0
BBX 12 10 -1 0
BITMAP
3FC0
1C60
1C70
3870
7E70
3870
38E0
70E0
71C0
FF00
ENDCHAR
STARTCHAR dcroat
ENCODING 273
SWIDTH 609 0
DWIDTH 9 0
BBX 10 11 0 0
BITMAP
0780
0380
1FC0
0380
3F00
7700
6700
E700
EE00
FE80
6700
ENDCHAR
STARTCHAR Emacron
ENCODING 274
SWIDTH 622 0
DWIDTH 9 0
BBX 10 12 -1 0
BITMAP
1F00
0000
3FC0
1CC0
1C40
3900
3F00
3900
3800
7080
7180
FF80
ENDCHAR
STARTCHAR emacron
ENCODING 275
SWIDTH 476 0
DWIDTH 7 0
BBX 6 9 0 0
BITMAP
7C
00
3C
74
68
F0
E4
E8
70
ENDCHAR
STARTCHAR Ebreve
ENCODING 276
SWIDTH 622 0
DWIDTH 9 0
BBX 10 13 -1 0
BITMAP
1100
0E00
0000
3FC0
1CC0
1C40
3900
3F00
3900
3800
7080
7180
FF80
ENDCHAR
STARTCHAR ebreve
ENCODING 277
SWIDTH 476 0
DWIDTH 7 0
BBX 6 10 0 0
BITMAP
44
38
00
3C
74
68
F0
E4
E8
70
ENDCHAR
STARTCHAR Edotaccent
ENCODING 278
SWIDTH 622 0
DWIDTH 9 0
BBX 10 13 -1 0
BITMAP
0600
0600
0000
3FC0
1CC0
1C40
3900
3F00
3900
3800
7080
7180
FF80
ENDCHAR
STARTCHAR edotaccent
ENCODING 279
SWIDTH 476 0
DWIDTH 7 0
BBX 6 10 0 0
BITMAP
30
30
00
3C
74
68
F0
E4
E8
70
ENDCHAR
STARTCHAR Eogonek
ENCODING 280
SWIDTH 622 0
DWIDTH 9 0
BBX 10 13 -1 -3
BITMAP
3FC0
1CC0
1C40
3900
3F00
3900
3800
7080
7180
FF80
0800
1000
1800
ENDCHAR
STARTCHAR eogonek
ENCODING 281
SWIDTH 476 0
DWIDTH 7 0
BBX 6 10 0 -3
BITMAP
3C
74
68
F0
E4
E8
70
20
40
60
ENDCHAR
STARTCHAR Ecaron
ENCODING 282
SWIDTH 622 0
DWIDTH 9 0
BBX 10 13 -1 0
BITMAP
0D00
0600
0000
3FC0
1CC0
1C40
3900
3F00
3900
3800
7080
7180
FF80
ENDCHAR
STARTCHAR ecaron
ENCODING 283
SWIDTH 476 0
DWIDTH 7 0
BBX 6 10 0 0
BITMAP
68
30
00
3C
74
68
F0
E4
E8
70
ENDCHAR
STARTCHAR Gcircumflex
ENCODING 284
SWIDTH 726 0
DWIDTH 10 0
BBX 10 13 0 0
BITMAP
0C00
1600
0000
0F80
3980
7080
7000
E000
E7C0
E380
E380
6780
3E00
ENDCHAR
STARTCHAR gcircumflex
ENCODING 285
SWIDTH 522 0
DWIDTH 8 0
BBX 9 13 -1 -3
BITMAP
0C00
1600
0000
1F80
3700
7700
7600
3C00
3800
3E00
4F00
C700
7E00
ENDCHAR
STARTCHAR Gbreve
ENCODING 286
SWIDTH 726 0
DWIDTH 10 0
BBX 10 13 0 0
BITMAP
1100
0E00
0000
0F80
3980
7080
7000
E000
E7C0
E380
E380
6780
3E00
ENDCHAR
STARTCHAR gbreve
ENCODING 287
SWIDTH 522 0
DWIDTH 8 0
BBX 9 13 -1 -3
BITMAP
2200
1C00
0000
1F80
3700
7700
7600
3C00
3800
3E00
4F00
C700
7E00
ENDCHAR
STARTCHAR Gdotaccent
ENCODING 288
SWIDTH 726 0
DWIDTH 10 0
BBX 10 13 0 0
BITMAP
0C00
0C00
0000
0F80
3980
7080
7000
E000
E7C0
E380
E380
6780
3E00
ENDCHAR
STARTCHAR gdotaccent
ENCODING 289
SWIDTH 522 0
DWIDTH 8 0
BBX 9 13 -1 -3
BITMAP
0C00
0C00
0000
1F80
3700
7700
7600
3C00
3800
3E00
4F00
C700
7E00
ENDCHAR
STARTCHAR Gcommaaccent
ENCODING 290
SWIDTH 726 0
DWIDTH 10 0
BBX 10 15 0 -5
BITMAP
0F80
3980
7080
7000
E000
E7C0
E380
E380
6780
3E00
0000
0C00
0C00
0800
1000
ENDCHAR
STARTCHAR gcommaaccent
ENCODING 291
SWIDTH 522 0
DWIDTH 8 0
BBX 9 15 -1 -3
BITMAP
0200
0400
0C00
0C00
0000
1F80
3700
7700
7600
3C00
3800
3E00
4F00
C700
7E00
ENDCHAR
STARTCHAR Hcircumflex
ENCODING 292
SWIDTH 800 0
DWIDTH 12 0
BBX 13 13 -1 0
BITMAP
0300
0580
0000
3EF8
1C70
1C70
38E0
3FE0
38E0
38E0
71C0
71C0
FBE0
ENDCHAR
STARTCHAR hcircumflex
ENCODING 293
SWIDTH 629 0
DWIDTH 9 0
BBX 9 14 0 0
BITMAP
1800
2C00
0000
7800
3800
3800
3800
7600
7F00
7700
6700
EE00
EE80
E700
ENDCHAR
STARTCHAR Hbar
ENCODING 294
SWIDTH 800 0
DWIDTH 12 0
BBX 13 10 -1 0
BITMAP
3EF8
1C70
FFF8
38E0
3FE0
38E0
38E0
71C0
71C0
FBE0
ENDCHAR
STARTCHAR hbar
ENCODING 295
SWIDTH 629 0
DWIDTH 9 0
BBX 10 11 -1 0
BITMAP
3C00
1C00
FE00
1C00
3B00
3F80
3B80
3380
7700
7740
7380
ENDCHAR
STARTCHAR Itilde
ENCODING 296
SWIDTH 386 0
DWIDTH 6 0
BBX 7 13 -1 0
BITMAP
1A
2C
00
3E
1C
1C
38
38
38
38
70
70
F8
ENDCHAR
STARTCHAR itilde
ENCODING 297
SWIDTH 339 0
DWIDTH 5 0
BBX 5 10 0 0
BITMAP
68
B0
00
F0
70
70
E0
E0
E8
70
ENDCHAR
STARTCHAR Imacron
ENCODING 298
SWIDTH 386 0
DWIDTH 6 0
BBX 7 12 -1 0
BITMAP
3E
00
3E
1C
1C
38
38
38
38
70
70
F8
ENDCHAR
STARTCHAR imacron
ENCODING 299
SWIDTH 339 0
DWIDTH 5 0
BBX 5 9 0 0
BITMAP
F8
00
F0
70
70
E0
E0
E8
70
ENDCHAR
STARTCHAR Ibreve
ENCODING 300
SWIDTH 386 0
DWIDTH 6 0
BBX 7 13 -1 0
BITMAP
22
1C
00
3E
1C
1C
38
38
38
38
70
70
F8
ENDCHAR
STARTCHAR ibreve
ENCODING 301
SWIDTH 339 0
DWIDTH 5 0
BBX 5 10 0 0
BITMAP
88
70
00
F0
70
70
E0
E0
E8
70
ENDCHAR
STARTCHAR Iogonek
ENCODING 302
SWIDTH 386 0
DWIDTH 6 0
BBX 7 13 -1 -3
BITMAP
3E
1C
1C
38
38
38
38
70
70
F8
10
20
30
ENDCHAR
STARTCHAR iogonek
ENCODING 303
SWIDTH 339 0
DWIDTH 5 0
BBX 5 13 0 -3
BITMAP
38
38
00
F0
70
70
E0
E0
E8
70
20
40
60
ENDCHAR
STARTCHAR Idotaccent
ENCODING 304
SWIDTH 386 0
DWIDTH 6 0
BBX 7 13 -1 0
BITMAP
18
18
00
3E
1C
1C
38
38
38
38
70
70
F8
ENDCHAR
STARTCHAR dotlessi
ENCODING 305
SWIDTH 339 0
DWIDTH 5 0
BBX 5 7 0 0
BITMAP
F0
70
70
E0
E0
E8
70
ENDCHAR
STARTCHAR IJ
ENCODING 306
SWIDTH 755 0
DWIDTH 12 0
BBX 13 12 -1 -2
BITMAP
3EF8
1C70
1C70
38E0
38E0
38E0
38E0
71C0
71C0
F9C0
0180
0700
ENDCHAR
STARTCHAR ij
ENCODING 307
SWIDTH 655 0
DWIDTH 10 0
BBX 10 13 0 -3
BITMAP
39C0
39C0
0000
F780
7380
7380
E380
E700
EF00
7700
0700
1700
1E00
ENDCHAR
STARTCHAR Jcircumflex
ENCODING 308
SWIDTH 388 0
DWIDTH 6 0
BBX 8 15 -2 -2
BITMAP
0C
16
00
1F
0E
0E
1C
1C
1C
1C
38
38
38
30
E0
ENDCHAR
STARTCHAR jcircumflex
ENCODING 309
SWIDTH 333 0
DWIDTH 5 0
BBX 7 13 -2 -3
BITMAP
18
2C
00
3C
1C
1C
1C
38
38
38
38
B8
F0
ENDCHAR
STARTCHAR Kcommaaccent
ENCODING 310
SWIDTH 688 0
DWIDTH 12 0
BBX 12 15 0 -5
BITMAP
3EF0
1C60
1C80
3900
3B00
3F00
3B80
7380
71C0
F9E0
0000
0600
0600
0400
0800
ENDCHAR
STARTCHAR kcommaaccent
ENCODING 311
SWIDTH 570 0
DWIDTH 8 0
BBX 9 16 0 -5
BITMAP
7800
3800
3800
7000
7300
7700
7C00
EC00
EE00
E780
E700
0000
1800
1800
1000
2000
ENDCHAR
STARTCHAR kgreenlandic
ENCODING 312
SWIDTH 570 0
DWIDTH 8 0
BBX 9 7 0 0
BITMAP
7300
7700
7C00
EC00
EE00
E780
E700
ENDCHAR
STARTCHAR Lacute
ENCODING 313
SWIDTH 586 0
DWIDTH 9 0
BBX 9 13 -1 0
BITMAP
0C00
1800
0000
3E00
1C00
1C00
3800
3800
3800
3800
7080
7180
FF80
ENDCHAR
STARTCHAR lacute
ENCODING 314
SWIDTH 327 0
DWIDTH 5 0
BBX 5 14 0 0
BITMAP
18
30
00
78
38
38
70
70
70
70
E0
E0
E8
70
ENDCHAR
STARTCHAR Lcommaaccent
ENCODING 315
SWIDTH 586 0
DWIDTH 9 0
BBX 9 15 -1 -5
BITMAP
3E00
1C00
1C00
3800
3800
3800
3800
7080
7180
FF80
0000
0C00
0C00
0800
1000
ENDCHAR
STARTCHAR lcommaaccent
ENCODING 316
SWIDTH 327 0
DWIDTH 5 0
BBX 5 16 0 -5
BITMAP
78
38
38
70
70
70
70
E0
E0
E8
70
00
60
60
40
80
ENDCHAR
STARTCHAR Lcaron
ENCODING 317
SWIDTH 803 0
DWIDTH 13 0
BBX 13 10 -1 0
BITMAP
3E18
1C18
1C10
3820
3800
3800
3800
7080
7180
FF80
ENDCHAR
STARTCHAR lcaron
ENCODING 318
SWIDTH 557 0
DWIDTH 9 0
BBX 8 11 0 0
BITMAP
78
3B
3B
72
74
70
70
E0
E0
E8
70
ENDCHAR
STARTCHAR Ldot
ENCODING 319
SWIDTH 837 0
DWIDTH 13 0
BBX 14 10 -1 0
BITMAP
3E00
1C00
1C00
3800
3818
383C
3818
7080
7180
FF80
ENDCHAR
STARTCHAR ldot
ENCODING 320
SWIDTH 591 0
DWIDTH 9 0
BBX 9 11 0 0
BITMAP
7800
3800
3800
7000
7000
7300
7780
E300
E000
E800
7000
ENDCHAR
STARTCHAR Lslash
ENCODING 321
SWIDTH 592 0
DWIDTH 9 0
BBX 9 10 -1 0
BITMAP
3E00
1C00
1C00
3800
7E00
3800
3800
7080
7180
FF80
ENDCHAR
STARTCHAR lslash
ENCODING 322
SWIDTH 339 0
DWIDTH 5 0
BBX 5 11 0 0
BITMAP
78
38
38
70
78
F0
70
E0
E0
E8
70
ENDCHAR
STARTCHAR Nacute
ENCODING 323
SWIDTH 741 0
DWIDTH 11 0
BBX 12 13 -1 0
BITMAP
0300
0600
0000
3C70
1C20
1E20
3E40
2F40
27C0
27C0
4380
4380
E180
ENDCHAR
STARTCHAR nacute
ENCODING 324
SWIDTH 635 0
DWIDTH 9 0
BBX 9 10 0 0
BITMAP
0C00
1800
0000
F600
7F00
7700
7700
EE00
EE80
E700
ENDCHAR
STARTCHAR Ncommaaccent
ENCODING 325
SWIDTH 741 0
DWIDTH 11 0
BBX 12 15 -1 -5
BITMAP
3C70
1C20
1E20
3E40
2F40
27C0
27C0
4380
4380
E180
0000
0600
0600
0400
0800
ENDCHAR
STARTCHAR ncommaaccent
ENCODING 326
SWIDTH 635 0
DWIDTH 9 0
BBX 9 12 0 -5
BITMAP
F600
7F00
7700
7700
EE00
EE80
E700
0000
1800
1800
1000
2000
ENDCHAR
STARTCHAR Ncaron
ENCODING 327
SWIDTH 741 0
DWIDTH 11 0
BBX 12 13 -1 0
BITMAP
0D00
0600
0000
3C70
1C20
1E20
3E40
2F40
27C0
27C0
4380
4380
E180
ENDCHAR
STARTCHAR ncaron
ENCODING 328
SWIDTH 635 0
DWIDTH 9 0
BBX 9 10 0 0
BITMAP
3400
1800
0000
F600
7F00
7700
7700
EE00
EE80
E700
ENDCHAR
STARTCHAR napostrophe
ENCODING 329
SWIDTH 869 0
DWIDTH 13 0
BBX 13 10 0 0
BITMAP
6000
6000
4000
8F60
07F0
0770
0770
0EE0
0EE8
0E70
ENDCHAR
STARTCHAR Eng
ENCODING 330
SWIDTH 741 0
DWIDTH 11 0
BBX 12 13 -1 -3
BITMAP
3C70
1C20
1E20
3E40
2F40
27C0
27C0
4380
4380
E380
0380
0B80
0F00
ENDCHAR
STARTCHAR eng
ENCODING 331
SWIDTH 635 0
DWIDTH 9 0
BBX 8 10 0 -3
BITMAP
F6
7F
77
77
EE
EE
EE
0E
2E
3C
ENDCHAR
STARTCHAR Omacron
ENCODING 332
SWIDTH 761 0
DWIDTH 12 0
BBX 11 12 0 0
BITMAP
1F00
0000
0F80
38C0
70E0
70E0
F0E0
E1E0
E1C0
E1C0
6380
3E00
ENDCHAR
STARTCHAR omacron
ENCODING 333
SWIDTH 562 0
DWIDTH 8 0
BBX 8 9 0 0
BITMAP
3E
00
3E
77
67
E7
E6
EE
7C
ENDCHAR
STARTCHAR Obreve
ENCODING 334
SWIDTH 761 0
DWIDTH 12 0
BBX 11 13 0 0
BITMAP
1100
0E00
0000
0F80
38C0
70E0
70E0
F0E0
E1E0
E1C0
E1C0
6380
3E00
ENDCHAR
STARTCHAR obreve
ENCODING 335
SWIDTH 562 0
DWIDTH 8 0
BBX 8 10 0 0
BITMAP
22
1C
00
3E
77
67
E7
E6
EE
7C
ENDCHAR
STARTCHAR Ohungarumlaut
ENCODING 336
SWIDTH 761 0
DWIDTH 12 0
BBX 11 13 0 0
BITMAP
0D80
1B00
0000
0F80
38C0
70E0
70E0
F0E0
E1E0
E1C0
E1C0
6380
3E00
ENDCHAR
STARTCHAR ohungarumlaut
ENCODING 337
SWIDTH 562 0
DWIDTH 8 0
BBX 8 10 0 0
BITMAP
1B
36
00
3E
77
67
E7
E6
EE
7C
ENDCHAR
STARTCHAR OE
ENCODING 338
SWIDTH 1016 0
DWIDTH 15 0
BBX 15 10 0 0
BITMAP
0FFE
38E6
70E2
71C8
E1F8
E1C8
E1C0
E384
638C
3FFC
ENDCHAR
STARTCHAR oe
ENCODING 339
SWIDTH 811 0
DWIDTH 12 0
BBX 11 7 0 0
BITMAP
3EE0
77A0
E740
E780
E720
EF40
7B80
ENDCHAR
STARTCHAR Racute
ENCODING 340
SWIDTH 681 0
DWIDTH 10 0
BBX 11 13 -1 0
BITMAP
0300
0600
0000
3FC0
1CE0
1CE0
39C0
3F80
3B80
3B80
71C0
71C0
F9E0
ENDCHAR
STARTCHAR racute
ENCODING 341
SWIDTH 440 0
DWIDTH 6 0
BBX 6 10 0 0
BITMAP
18
30
00
EC
7C
70
70
E0
E0
E0
ENDCHAR
STARTCHAR Rcommaaccent
ENCODING 342
SWIDTH 681 0
DWIDTH 10 0
BBX 11 15 -1 -5
BITMAP
3FC0
1CE0
1CE0
39C0
3F80
3B80
3B80
71C0
71C0
F9E0
0000
0600
0600
0400
0800
ENDCHAR
STARTCHAR rcommaaccent
ENCODING 343
SWIDTH 440 0
DWIDTH 6 0
BBX 6 12 0 -5
BITMAP
EC
7C
70
70
E0
E0
E0
00
60
60
40
80
ENDCHAR
STARTCHAR Rcaron
ENCODING 344
SWIDTH 681 0
DWIDTH 10 0
BBX 11 13 -1 0
BITMAP
0D00
0600
0000
3FC0
1CE0
1CE0
39C0
3F80
3B80
3B80
71C0
71C0
F9E0
ENDCHAR
STARTCHAR rcaron
ENCODING 345
SWIDTH 440 0
DWIDTH 6 0
BBX 6 10 0 0
BITMAP
68
30
00
EC
7C
70
70
E0
E0
E0
ENDCHAR
STARTCHAR Sacute
ENCODING 346
SWIDTH 551 0
DWIDTH 8 0
BBX 9 13 -1 0
BITMAP
0600
0C00
0000
0F80
1980
3100
3800
3C00
1E00
0E00
4600
CC00
F800
ENDCHAR
STARTCHAR sacute
ENCODING 347
SWIDTH 417 0
DWIDTH 6 0
BBX 7 10 -1 0
BITMAP
0C
18
00
1C
36
78
3C
1C
D8
70
ENDCHAR
STARTCHAR Scircumflex
ENCODING 348
SWIDTH 551 0
DWIDTH 8 0
BBX 9 13 -1 0
BITMAP
0C00
1600
0000
0F80
1980
3100
3800
3C00
1E00
0E00
4600
CC00
F800
ENDCHAR
STARTCHAR scircumflex
ENCODING 349
SWIDTH 417 0
DWIDTH 6 0
BBX 7 10 -1 0
BITMAP
18
2C
00
1C
36
78
3C
1C
D8
70
ENDCHAR
STARTCHAR Scedilla
ENCODING 350
SWIDTH 551 0
DWIDTH 8 0
BBX 9 13 -1 -3
BITMAP
0F80
1980
3100
3800
3C00
1E00
0E00
4600
CC00
F800
1000
0800
3800
ENDCHAR
STARTCHAR scedilla
ENCODING 351
SWIDTH 417 0
DWIDTH 6 0
BBX 7 10 -1 -3
BITMAP
1C
36
78
3C
1C
D8
70
20
10
70
ENDCHAR
STARTCHAR Scaron
ENCODING 352
SWIDTH 551 0
DWIDTH 8 0
BBX 9 12 -1 0
BITMAP
0D00
0600
0000
0F80
1980
3900
3C00
1E00
0E00
4600
CC00
F800
ENDCHAR
STARTCHAR scaron
ENCODING 353
SWIDTH 417 0
DWIDTH 6 0
BBX 7 10 -1 0
BITMAP
1A
0C
00
1C
36
78
3C
1C
D8
70
ENDCHAR
STARTCHAR Tcommaaccent
ENCODING 354
SWIDTH 616 0
DWIDTH 9 0
BBX 9 13 0 -3
BITMAP
FF80
DD80
9C80
3800
3800
3800
3800
7000
7000
F800
1000
0800
3800
ENDCHAR
STARTCHAR tcommaaccent
ENCODING 355
SWIDTH 359 0
DWIDTH 5 0
BBX 5 12 0 -3
BITMAP
30
70
F8
70
70
E0
E0
E8
70
20
10
70
ENDCHAR
STARTCHAR Tcaron
ENCODING 356
SWIDTH 616 0
DWIDTH 9 0
BBX 9 13 0 0
BITMAP
1A00
0C00
0000
FF80
DD80
9C80
3800
3800
3800
3800
7000
7000
F800
ENDCHAR
STARTCHAR tcaron
ENCODING 357
SWIDTH 587 0
DWIDTH 9 0
BBX 8 10 0 0
BITMAP
03
33
72
FC
70
70
E0
E0
E8
70
ENDCHAR
STARTCHAR Tbar
ENCODING 358
SWIDTH 616 0
DWIDTH 9 0
BBX 9 10 0 0
BITMAP
FF80
DD80
9C80
3800
7F00
3800
3800
7000
7000
F800
ENDCHAR
STARTCHAR tbar
ENCODING 359
SWIDTH 359 0
DWIDTH 5 0
BBX 7 9 -1 0
BITMAP
18
38
7C
38
38
FE
70
74
38
ENDCHAR
STARTCHAR Utilde
ENCODING 360
SWIDTH 776 0
DWIDTH 12 0
BBX 12 13 0 0
BITMAP
0680
0B00
0000
7DF0
38E0
38E0
71C0
71C0
71C0
E380
E380
E380
7F00
ENDCHAR
STARTCHAR utilde
ENCODING 361
SWIDTH 634 0
DWIDTH 9 0
BBX 9 10 0 0
BITMAP
1A00
2C00
0000
F700
7700
7700
EE00
EE00
FE80
6700
ENDCHAR
STARTCHAR Umacron
ENCODING 362
SWIDTH 776 0
DWIDTH 12 0
BBX 12 12 0 0
BITMAP
0F80
0000
7DF0
38E0
38E0
71C0
71C0
71C0
E380
E380
E380
7F00
ENDCHAR
STARTCHAR umacron
ENCODING 363
SWIDTH 634 0
DWIDTH 9 0
BBX 9 9 0 0
BITMAP
3E00
0000
F700
7700
7700
EE00
EE00
FE80
6700
ENDCHAR
STARTCHAR Ubreve
ENCODING 364
SWIDTH 776 0
DWIDTH 12 0
BBX 12 13 0 0
BITMAP
0880
0700
0000
7DF0
38E0
38E0
71C0
71C0
71C0
E380
E380
E380
7F00
ENDCHAR
STARTCHAR ubreve
ENCODING 365
SWIDTH 634 0
DWIDTH 9 0
BBX 9 10 0 0
BITMAP
2200
1C00
0000
F700
7700
7700
EE00
EE00
FE80
6700
ENDCHAR
STARTCHAR Uring
ENCODING 366
SWIDTH 776 0
DWIDTH 12 0
BBX 12 14 0 0
BITMAP
0600
0900
0600
0000
7DF0
38E0
38E0
71C0
71C0
71C0
E380
E380
E380
7F00
ENDCHAR
STARTCHAR uring
ENCODING 367
SWIDTH 634 0
DWIDTH 9 0
BBX 9 11 0 0
BITMAP
1800
2400
1800
0000
F700
7700
7700
EE00
EE00
FE80
6700
ENDCHAR
STARTCHAR Uhungarumlaut
ENCODING 368
SWIDTH 776 0
DWIDTH 12 0
BBX 12 13 0 0
BITMAP
06C0
0D80
0000
7DF0
38E0
38E0
71C0
71C0
71C0
E380
E380
E380
7F00
ENDCHAR
STARTCHAR uhungarumlaut
ENCODING 369
SWIDTH 634 0
DWIDTH 9 0
BBX 9 10 0 0
BITMAP
1B00
3600
0000
F700
7700
7700
EE00
EE00
FE80
6700
ENDCHAR
STARTCHAR Uogonek
ENCODING 370
SWIDTH 776 0
DWIDTH 12 0
BBX 12 13 0 -3
BITMAP
7DF0
38E0
38E0
71C0
71C0
71C0
E380
E380
E380
7F00
0400
0800
0C00
ENDCHAR
STARTCHAR uogonek
ENCODING 371
SWIDTH 634 0
DWIDTH 9 0
BBX 9 10 0 -3
BITMAP
F700
7700
7700
EE00
EE00
FE80
6700
0800
1000
1800
ENDCHAR
STARTCHAR Wcircumflex
ENCODING 372
SWIDTH 920 0
DWIDTH 14 0
BBX 15 13 0 0
BITMAP
0300
0580
0000
F9CE
71C4
71C4
73C8
73C8
34D0
34D0
38E0
38E0
30C0
ENDCHAR
STARTCHAR wcircumflex
ENCODING 373
SWIDTH 795 0
DWIDTH 12 0
BBX 12 10 0 0
BITMAP
0600
0B00
0000
F330
7330
7730
E760
E640
EE80
7300
ENDCHAR
STARTCHAR Ycircumflex
ENCODING 374
SWIDTH 622 0
DWIDTH 9 0
BBX 9 13 1 0
BITMAP
1800
2C00
0000
FB80
7100
7200
7400
3800
3800
3800
7000
7000
F800
ENDCHAR
STARTCHAR ycircumflex
ENCODING 375
SWIDTH 489 0
DWIDTH 7 0
BBX 8 13 -1 -3
BITMAP
18
2C
00
7B
3B
3A
3A
3C
18
18
10
E0
C0
ENDCHAR
STARTCHAR Ydieresis
ENCODING 376
SWIDTH 622 0
DWIDTH 9 0
BBX 9 12 1 0
BITMAP
1B00
1B00
0000
FB80
7100
7200
7400
3800
3800
7000
7000
F800
ENDCHAR
STARTCHAR Zacute
ENCODING 377
SWIDTH 618 0
DWIDTH 9 0
BBX 10 13 -1 0
BITMAP
0600
0C00
0000
3FC0
3380
2700
0700
0E00
1C00
3800
3900
7300
FF00
ENDCHAR
STARTCHAR zacute
ENCODING 378
SWIDTH 466 0
DWIDTH 7 0
BBX 6 10 0 0
BITMAP
18
30
00
7C
FC
98
30
64
FC
B8
ENDCHAR
STARTCHAR Zdotaccent
ENCODING 379
SWIDTH 618 0
DWIDTH 9 0
BBX 10 13 -1 0
BITMAP
0600
0600
0000
3FC0
3380
2700
0700
0E00
1C00
3800
3900
7300
FF00
ENDCHAR
STARTCHAR zdotaccent
ENCODING 380
SWIDTH 466 0
DWIDTH 7 0
BBX 6 10 0 0
BITMAP
30
30
00
7C
FC
98
30
64
FC
B8
ENDCHAR
STARTCHAR Zcaron
ENCODING 381
SWIDTH 618 0
DWIDTH 9 0
BBX 10 12 -1 0
BITMAP
0D00
0600
0000
3FC0
3380
2700
0E00
0C00
1C00
3900
7300
FF00
ENDCHAR
STARTCHAR zcaron
ENCODING 382
SWIDTH 466 0
DWIDTH 7 0
BBX 6 10 0 0
BITMAP
34
18
00
7C
FC
98
30
64
FC
B8
ENDCHAR
STARTCHAR uni0186
ENCODING 390
SWIDTH 672 0
DWIDTH 10 0
BBX 9 10 0 0
BITMAP
3E00
6300
4380
0380
0380
0380
0700
8700
CE00
F800
ENDCHAR
STARTCHAR uni0189
ENCODING 393
SWIDTH 780 0
DWIDTH 12 0
BBX 12 10 -1 0
BITMAP
3FC0
1C60
1C70
3870
7E70
3870
38E0
70E0
71C0
FF00
ENDCHAR
STARTCHAR uni018E
ENCODING 398
SWIDTH 622 0
DWIDTH 9 0
BBX 10 10 -1 0
BITMAP
7FC0
6380
4380
0700
2700
3F00
2700
8E00
CE00
FF00
ENDCHAR
STARTCHAR florin
ENCODING 402
SWIDTH 560 0
DWIDTH 8 0
BBX 8 12 0 -2
BITMAP
07
0D
1C
1C
7F
1C
38
38
38
38
B0
E0
ENDCHAR
STARTCHAR uni0197
ENCODING 407
SWIDTH 386 0
DWIDTH 6 0
BBX 7 10 -1 0
BITMAP
3E
1C
1C
38
FE
38
38
70
70
F8
ENDCHAR
STARTCHAR uni019A
ENCODING 410
SWIDTH 327 0
DWIDTH 5 0
BBX 7 11 -1 0
BITMAP
3C
1C
1C
38
38
FE
38
70
70
74
38
ENDCHAR
STARTCHAR uni019D
ENCODING 413
SWIDTH 741 0
DWIDTH 11 0
BBX 13 13 -2 -3
BITMAP
1E38
0E10
0F10
1F20
17A0
13E0
13E0
39C0
38C0
38C0
3800
B800
F000
ENDCHAR
STARTCHAR uni019F
ENCODING 415
SWIDTH 761 0
DWIDTH 12 0
BBX 11 10 0 0
BITMAP
0F80
38C0
70E0
70E0
FFE0
E1E0
E1C0
E1C0
6380
3E00
ENDCHAR
STARTCHAR Ohorn
ENCODING 416
SWIDTH 761 0
DWIDTH 12 0
BBX 13 10 0 0
BITMAP
0F98
38D8
70F0
70E0
F0E0
E1E0
E1C0
E1C0
6380
3E00
ENDCHAR
STARTCHAR ohorn
ENCODING 417
SWIDTH 562 0
DWIDTH 8 0
BBX 11 7 0 0
BITMAP
3E60
7760
6740
E780
E600
EE00
7C00
ENDCHAR
STARTCHAR Uhorn
ENCODING 431
SWIDTH 776 0
DWIDTH 12 0
BBX 14 10 0 0
BITMAP
7DFC
38EC
38E8
71D0
71C0
71C0
E380
E380
E380
7F00
ENDCHAR
STARTCHAR uhorn
ENCODING 432
SWIDTH 634 0
DWIDTH 9 0
BBX 11 7 0 0
BITMAP
F760
7760
7740
EE80
EE00
FE80
6700
ENDCHAR
STARTCHAR uni01B5
ENCODING 437
SWIDTH 618 0
DWIDTH 9 0
BBX 10 10 -1 0
BITMAP
3FC0
3380
2700
0700
3F80
1C00
3800
3900
7300
FF00
ENDCHAR
STARTCHAR uni01B6
ENCODING 438
SWIDTH 466 0
DWIDTH 7 0
BBX 7 7 0 0
BITMAP
7C
FC
98
FE
64
FC
B8
ENDCHAR
STARTCHAR uni01BB
ENCODING 443
SWIDTH 560 0
DWIDTH 8 0
BBX 8 10 0 0
BITMAP
3E
77
67
07
FF
38
60
C2
FE
FE
ENDCHAR
STARTCHAR uni01BC
ENCODING 444
SWIDTH 560 0
DWIDTH 8 0
BBX 8 10 0 0
BITMAP
3F
3E
20
40
7C
0E
0E
CE
EC
78
ENDCHAR
STARTCHAR uni01C0
ENCODING 448
SWIDTH 265 0
DWIDTH 4 0
BBX 2 10 1 0
BITMAP
C0
C0
C0
C0
C0
C0
C0
C0
C0
C0
ENDCHAR
STARTCHAR uni01C2
ENCODING 450
SWIDTH 600 0
DWIDTH 9 0
BBX 8 10 0 -1
BITMAP
18
18
18
FF
18
18
FF
18
18
18
ENDCHAR
STARTCHAR uni01C3
ENCODING 451
SWIDTH 285 0
DWIDTH 4 0
BBX 4 10 0 0
BITMAP
30
70
70
60
60
40
00
00
C0
C0
ENDCHAR
STARTCHAR uni01CD
ENCODING 461
SWIDTH 634 0
DWIDTH 9 0
BBX 10 13 -2 0
BITMAP
0D00
0600
0000
0300
0700
0700
0B00
1300
1380
3F80
4380
4380
E7C0
ENDCHAR
STARTCHAR uni01CE
ENCODING 462
SWIDTH 596 0
DWIDTH 9 0
BBX 9 10 0 0
BITMAP
1A00
0C00
0000
3F00
7700
6700
EE00
EE00
FE80
6700
ENDCHAR
STARTCHAR uni01CF
ENCODING 463
SWIDTH 386 0
DWIDTH 6 0
BBX 7 13 -1 0
BITMAP
34
18
00
3E
1C
1C
38
38
38
38
70
70
F8
ENDCHAR
STARTCHAR uni01D0
ENCODING 464
SWIDTH 339 0
DWIDTH 5 0
BBX 5 10 0 0
BITMAP
D0
60
00
F0
70
70
E0
E0
E8
70
ENDCHAR
STARTCHAR uni01D1
ENCODING 465
SWIDTH 761 0
DWIDTH 12 0
BBX 11 13 0 0
BITMAP
0D00
0600
0000
0F80
38C0
70E0
70E0
F0E0
E1E0
E1C0
E1C0
6380
3E00
ENDCHAR
STARTCHAR uni01D2
ENCODING 466
SWIDTH 562 0
DWIDTH 8 0
BBX 8 10 0 0
BITMAP
34
18
00
3E
77
67
E7
E6
EE
7C
ENDCHAR
STARTCHAR uni01D3
ENCODING 467
SWIDTH 776 0
DWIDTH 12 0
BBX 12 13 0 0
BITMAP
0D00
0600
0000
7DF0
38E0
38E0
71C0
71C0
71C0
E380
E380
E380
7F00
ENDCHAR
STARTCHAR uni01D4
ENCODING 468
SWIDTH 634 0
DWIDTH 9 0
BBX 9 10 0 0
BITMAP
3400
1800
0000
F700
7700
7700
EE00
EE00
FE80
6700
ENDCHAR
STARTCHAR uni01D5
ENCODING 469
SWIDTH 776 0
DWIDTH 12 0
BBX 12 14 0 0
BITMAP
0F80
0000
06C0
06C0
0000
7DF0
38E0
38E0
71C0
71C0
71C0
E380
E380
7F00
ENDCHAR
STARTCHAR uni01D6
ENCODING 470
SWIDTH 634 0
DWIDTH 9 0
BBX 9 12 0 0
BITMAP
3E00
0000
3600
3600
0000
F700
7700
7700
EE00
EE00
FE80
6700
ENDCHAR
STARTCHAR uni01D7
ENCODING 471
SWIDTH 776 0
DWIDTH 12 0
BBX 12 15 0 0
BITMAP
0300
0600
0000
06C0
06C0
0000
7DF0
38E0
38E0
71C0
71C0
71C0
E380
E380
7F00
ENDCHAR
STARTCHAR uni01D8
ENCODING 472
SWIDTH 634 0
DWIDTH 9 0
BBX 9 13 0 0
BITMAP
0C00
1800
0000
3600
3600
0000
F700
7700
7700
EE00
EE00
FE80
6700
ENDCHAR
STARTCHAR uni01D9
ENCODING 473
SWIDTH 776 0
DWIDTH 12 0
BBX 12 15 0 0
BITMAP
0680
0300
0000
06C0
06C0
0000
7DF0
38E0
38E0
71C0
71C0
71C0
E380
E380
7F00
ENDCHAR
STARTCHAR uni01DA
ENCODING 474
SWIDTH 634 0
DWIDTH 9 0
BBX 9 13 0 0
BITMAP
1A00
0C00
0000
3600
3600
0000
F700
7700
7700
EE00
EE00
FE80
6700
ENDCHAR
STARTCHAR uni01DB
ENCODING 475
SWIDTH 776 0
DWIDTH 12 0
BBX 12 15 0 0
BITMAP
0600
0300
0000
06C0
06C0
0000
7DF0
38E0
38E0
71C0
71C0
71C0
E380
E380
7F00
ENDCHAR
STARTCHAR uni01DC
ENCODING 476
SWIDTH 634 0
DWIDTH 9 0
BBX 9 13 0 0
BITMAP
1800
0C00
0000
3600
3600
0000
F700
7700
7700
EE00
EE00
FE80
6700
ENDCHAR
STARTCHAR uni01DD
ENCODING 477
SWIDTH 476 0
DWIDTH 7 0
BBX 6 7 0 0
BITMAP
38
5C
9C
3C
58
B8
F0
ENDCHAR
STARTCHAR uni01DE
ENCODING 478
SWIDTH 634 0
DWIDTH 9 0
BBX 10 14 -2 0
BITMAP
0F80
0000
06C0
06C0
0000
0300
0700
0B00
0B00
1380
3F80
2380
4380
E7C0
ENDCHAR
STARTCHAR uni01DF
ENCODING 479
SWIDTH 596 0
DWIDTH 9 0
BBX 9 12 0 0
BITMAP
1F00
0000
1B00
1B00
0000
3F00
7700
6700
EE00
EE00
FE80
6700
ENDCHAR
STARTCHAR uni01E0
ENCODING 480
SWIDTH 634 0
DWIDTH 9 0
BBX 10 15 -2 0
BITMAP
1F00
0000
0600
0600
0000
0300
0700
0700
0B00
1300
1380
3F80
4380
4380
E7C0
ENDCHAR
STARTCHAR uni01E1
ENCODING 481
SWIDTH 596 0
DWIDTH 9 0
BBX 9 12 0 0
BITMAP
3E00
0000
0C00
0C00
0000
3F00
7700
6700
EE00
EE00
FE80
6700
ENDCHAR
STARTCHAR uni01E2
ENCODING 482
SWIDTH 890 0
DWIDTH 13 0
BBX 15 12 -2 0
BITMAP
01F0
0000
03FE
01E6
02E2
05C8
09F8
09C8
1FC0
2384
438C
E7FC
ENDCHAR
STARTCHAR uni01E3
ENCODING 483
SWIDTH 789 0
DWIDTH 12 0
BBX 11 10 0 0
BITMAP
1F00
0000
0200
3EE0
77A0
E740
EF80
EF20
F740
6380
ENDCHAR
STARTCHAR uni01E4
ENCODING 484
SWIDTH 726 0
DWIDTH 10 0
BBX 12 10 0 0
BITMAP
0F80
3980
7080
7000
E000
E7C0
E380
E7F0
6780
3E00
ENDCHAR
STARTCHAR uni01E5
ENCODING 485
SWIDTH 522 0
DWIDTH 8 0
BBX 9 10 -1 -3
BITMAP
1F80
3700
7700
7600
3C00
3800
3E00
FF80
C700
7E00
ENDCHAR
STARTCHAR Gcaron
ENCODING 486
SWIDTH 726 0
DWIDTH 10 0
BBX 10 13 0 0
BITMAP
1A00
0C00
0000
0F80
3980
7080
7000
E000
E7C0
E380
E380
6780
3E00
ENDCHAR
STARTCHAR gcaron
ENCODING 487
SWIDTH 522 0
DWIDTH 8 0
BBX 9 13 -1 -3
BITMAP
1A00
0C00
0000
1F80
3700
7700
7600
3C00
3800
3E00
4F00
C700
7E00
ENDCHAR
STARTCHAR uni01E8
ENCODING 488
SWIDTH 688 0
DWIDTH 12 0
BBX 12 13 0 0
BITMAP
0D00
0600
0000
3EF0
1C60
1C80
3900
3B00
3F00
3B80
7380
71C0
F9E0
ENDCHAR
STARTCHAR uni01E9
ENCODING 489
SWIDTH 570 0
DWIDTH 8 0
BBX 9 14 0 0
BITMAP
3400
1800
0000
7800
3800
3800
7000
7300
7700
7C00
EC00
EE00
E780
E700
ENDCHAR
STARTCHAR uni01EA
ENCODING 490
SWIDTH 761 0
DWIDTH 12 0
BBX 11 13 0 -3
BITMAP
0F80
38C0
70E0
70E0
F0E0
E1E0
E1C0
E1C0
6380
3E00
0400
0800
0C00
ENDCHAR
STARTCHAR uni01EB
ENCODING 491
SWIDTH 562 0
DWIDTH 8 0
BBX 8 10 0 -3
BITMAP
3E
77
67
E7
E6
EE
7C
10
20
30
ENDCHAR
STARTCHAR uni01EC
ENCODING 492
SWIDTH 761 0
DWIDTH 12 0
BBX 11 15 0 -3
BITMAP
1F00
0000
0F80
38C0
70E0
70E0
F0E0
E1E0
E1C0
E1C0
6380
3E00
0400
0800
0C00
ENDCHAR
STARTCHAR uni01ED
ENCODING 493
SWIDTH 562 0
DWIDTH 8 0
BBX 8 12 0 -3
BITMAP
3E
00
3E
77
67
E7
E6
EE
7C
10
20
30
ENDCHAR
STARTCHAR uni01F0
ENCODING 496
SWIDTH 333 0
DWIDTH 5 0
BBX 7 13 -2 -3
BITMAP
34
18
00
3C
1C
1C
1C
38
38
38
38
B8
F0
ENDCHAR
STARTCHAR uni01F4
ENCODING 500
SWIDTH 726 0
DWIDTH 10 0
BBX 10 13 0 0
BITMAP
0600
0C00
0000
0F80
3980
7080
7000
E000
E7C0
E380
E380
6780
3E00
ENDCHAR
STARTCHAR uni01F5
ENCODING 501
SWIDTH 522 0
DWIDTH 8 0
BBX 9 13 -1 -3
BITMAP
0600
0C00
0000
1F80
3700
7700
7600
3C00
3800
3E00
4F00
C700
7E00
ENDCHAR
STARTCHAR uni01F8
ENCODING 504
SWIDTH 741 0
DWIDTH 11 0
BBX 12 13 -1 0
BITMAP
0C00
0600
0000
3C70
1C20
1E20
3E40
2F40
27C0
27C0
4380
4380
E180
ENDCHAR
STARTCHAR uni01F9
ENCODING 505
SWIDTH 635 0
DWIDTH 9 0
BBX 9 10 0 0
BITMAP
3000
1800
0000
F600
7F00
7700
7700
EE00
EE80
E700
ENDCHAR
STARTCHAR Aringacute
ENCODING 506
SWIDTH 634 0
DWIDTH 9 0
BBX 10 15 -2 0
BITMAP
0300
0600
0000
0300
0480
0300
0300
0700
0B00
0B00
1380
3F80
2380
4380
E7C0
ENDCHAR
STARTCHAR aringacute
ENCODING 507
SWIDTH 596 0
DWIDTH 9 0
BBX 9 14 0 0
BITMAP
0600
0C00
0000
0C00
1200
0C00
0000
3F00
7700
6700
EE00
EE00
FE80
6700
ENDCHAR
STARTCHAR AEacute
ENCODING 508
SWIDTH 890 0
DWIDTH 13 0
BBX 15 13 -2 0
BITMAP
0060
00C0
0000
03FE
01E6
02E2
05C8
09F8
09C8
1FC0
2384
438C
E7FC
ENDCHAR
STARTCHAR aeacute
ENCODING 509
SWIDTH 789 0
DWIDTH 12 0
BBX 11 11 0 0
BITMAP
0300
0600
0000
0200
3EE0
77A0
E740
EF80
EF20
F740
6380
ENDCHAR
STARTCHAR Oslashacute
ENCODING 510
SWIDTH 761 0
DWIDTH 11 0
BBX 11 15 0 -1
BITMAP
0300
0600
0000
0080
0F80
39C0
72E0
72E0
E4E0
E4E0
E9C0
E9C0
7380
3E00
2000
ENDCHAR
STARTCHAR oslashacute
ENCODING 511
SWIDTH 562 0
DWIDTH 8 0
BBX 10 10 -1 0
BITMAP
0600
0C00
0000
1F40
3B80
7780
7B80
7380
7700
BE00
ENDCHAR
STARTCHAR Scommaaccent
ENCODING 536
SWIDTH 551 0
DWIDTH 8 0
BBX 9 15 -1 -5
BITMAP
0F80
1980
3100
3800
3C00
1E00
0E00
4600
CC00
F800
0000
1800
1800
1000
2000
ENDCHAR
STARTCHAR scommaaccent
ENCODING 537
SWIDTH 417 0
DWIDTH 6 0
BBX 7 12 -1 -5
BITMAP
1C
36
78
3C
1C
D8
70
00
30
30
20
40
ENDCHAR
STARTCHAR Tcommaaccent
ENCODING 538
SWIDTH 616 0
DWIDTH 9 0
BBX 9 15 0 -5
BITMAP
FF80
DD80
9C80
3800
3800
3800
3800
7000
7000
F800
0000
3000
3000
2000
4000
ENDCHAR
STARTCHAR tcommaaccent
ENCODING 539
SWIDTH 359 0
DWIDTH 5 0
BBX 5 14 0 -5
BITMAP
30
70
F8
70
70
E0
E0
E8
70
00
60
60
40
80
ENDCHAR
STARTCHAR uni021E
ENCODING 542
SWIDTH 800 0
DWIDTH 12 0
BBX 13 13 -1 0
BITMAP
0680
0300
0000
3EF8
1C70
1C70
38E0
3FE0
38E0
38E0
71C0
71C0
FBE0
ENDCHAR
STARTCHAR uni021F
ENCODING 543
SWIDTH 629 0
DWIDTH 9 0
BBX 9 14 0 0
BITMAP
3400
1800
0000
7800
3800
3800
3800
7600
7F00
7700
6700
EE00
EE80
E700
ENDCHAR
STARTCHAR uni0226
ENCODING 550
SWIDTH 634 0
DWIDTH 9 0
BBX 10 13 -2 0
BITMAP
0600
0600
0000
0300
0700
0700
0B00
1300
1380
3F80
4380
4380
E7C0
ENDCHAR
STARTCHAR uni0227
ENCODING 551
SWIDTH 596 0
DWIDTH 9 0
BBX 9 10 0 0
BITMAP
0C00
0C00
0000
3F00
7700
6700
EE00
EE00
FE80
6700
ENDCHAR
STARTCHAR uni0228
ENCODING 552
SWIDTH 622 0
DWIDTH 9 0
BBX 10 13 -1 -3
BITMAP
3FC0
1CC0
1C40
3900
3F00
3900
3800
7080
7180
FF80
0800
0400
1C00
ENDCHAR
STARTCHAR uni0229
ENCODING 553
SWIDTH 476 0
DWIDTH 7 0
BBX 6 10 0 -3
BITMAP
3C
74
68
F0
E4
E8
70
20
10
70
ENDCHAR
STARTCHAR uni022A
ENCODING 554
SWIDTH 761 0
DWIDTH 12 0
BBX 11 14 0 0
BITMAP
0F80
0000
0D80
0D80
0000
0F80
38C0
70E0
70E0
F1E0
E1C0
E1C0
6380
3E00
ENDCHAR
STARTCHAR uni022B
ENCODING 555
SWIDTH 562 0
DWIDTH 8 0
BBX 8 12 0 0
BITMAP
3E
00
36
36
00
3E
77
67
E7
E6
EE
7C
ENDCHAR
STARTCHAR uni022C
ENCODING 556
SWIDTH 761 0
DWIDTH 12 0
BBX 11 14 0 0
BITMAP
0F80
0000
0680
0B00
0000
0F80
38C0
70E0
70E0
F1E0
E1C0
E1C0
6380
3E00
ENDCHAR
STARTCHAR uni022D
ENCODING 557
SWIDTH 562 0
DWIDTH 8 0
BBX 8 12 0 0
BITMAP
3E
00
1A
2C
00
3E
77
67
E7
E6
EE
7C
ENDCHAR
STARTCHAR uni022E
ENCODING 558
SWIDTH 761 0
DWIDTH 12 0
BBX 11 13 0 0
BITMAP
0600
0600
0000
0F80
38C0
70E0
70E0
F0E0
E1E0
E1C0
E1C0
6380
3E00
ENDCHAR
STARTCHAR uni022F
ENCODING 559
SWIDTH 562 0
DWIDTH 8 0
BBX 8 10 0 0
BITMAP
18
18
00
3E
77
67
E7
E6
EE
7C
ENDCHAR
STARTCHAR uni0230
ENCODING 560
SWIDTH 761 0
DWIDTH 12 0
BBX 11 15 0 0
BITMAP
0F80
0000
0600
0600
0000
0F80
38C0
70E0
70E0
F0E0
E1E0
E1C0
E1C0
6380
3E00
ENDCHAR
STARTCHAR uni0231
ENCODING 561
SWIDTH 562 0
DWIDTH 8 0
BBX 8 12 0 0
BITMAP
3E
00
18
18
00
3E
77
67
E7
E6
EE
7C
ENDCHAR
STARTCHAR uni0232
ENCODING 562
SWIDTH 622 0
DWIDTH 9 0
BBX 9 12 1 0
BITMAP
3E00
0000
FB80
7100
7200
7400
3800
3800
3800
7000
7000
F800
ENDCHAR
STARTCHAR uni0233
ENCODING 563
SWIDTH 489 0
DWIDTH 7 0
BBX 8 12 -1 -3
BITMAP
3E
00
7B
3B
3A
3A
3C
18
18
10
E0
C0
ENDCHAR
STARTCHAR uni0250
ENCODING 592
SWIDTH 596 0
DWIDTH 9 0
BBX 9 7 0 0
BITMAP
7300
BF80
3B80
3B80
7300
7700
7E00
ENDCHAR
STARTCHAR uni0259
ENCODING 601
SWIDTH 476 0
DWIDTH 7 0
BBX 6 7 0 0
BITMAP
38
5C
9C
3C
58
B8
F0
ENDCHAR
STARTCHAR uni025F
ENCODING 607
SWIDTH 348 0
DWIDTH 5 0
BBX 9 14 -2 -7
BITMAP
0380
0680
0E00
0E00
0E00
0E00
1C00
1C00
1C00
7E00
3800
3800
B000
E000
ENDCHAR
STARTCHAR uni0265
ENCODING 613
SWIDTH 629 0
DWIDTH 9 0
BBX 9 11 0 -4
BITMAP
7380
BB80
3B80
7300
7700
7F00
3700
0E00
0E00
0E00
0F00
ENDCHAR
STARTCHAR uni0275
ENCODING 629
SWIDTH 562 0
DWIDTH 8 0
BBX 8 7 0 0
BITMAP
3E
77
67
FF
E6
EE
7C
ENDCHAR
STARTCHAR uni0279
ENCODING 633
SWIDTH 440 0
DWIDTH 6 0
BBX 6 7 0 0
BITMAP
1C
1C
1C
38
38
F8
DC
ENDCHAR
STARTCHAR uni0287
ENCODING 647
SWIDTH 359 0
DWIDTH 5 0
BBX 5 9 0 0
BITMAP
70
B8
38
38
70
70
F8
70
60
ENDCHAR
STARTCHAR uni0289
ENCODING 649
SWIDTH 634 0
DWIDTH 9 0
BBX 9 7 0 0
BITMAP
F700
7700
7700
FF80
EE00
FE80
6700
ENDCHAR
STARTCHAR uni028C
ENCODING 652
SWIDTH 518 0
DWIDTH 8 0
BBX 8 7 0 0
BITMAP
0E
17
27
67
4E
CE
CF
ENDCHAR
STARTCHAR uni028D
ENCODING 653
SWIDTH 795 0
DWIDTH 12 0
BBX 12 7 0 0
BITMAP
0CE0
1770
2670
6E70
CEE0
CCE0
CCF0
ENDCHAR
STARTCHAR uni028E
ENCODING 654
SWIDTH 489 0
DWIDTH 7 0
BBX 8 10 -1 0
BITMAP
03
07
08
18
18
3C
5C
5C
DC
DE
ENDCHAR
STARTCHAR uni029E
ENCODING 670
SWIDTH 570 0
DWIDTH 8 0
BBX 9 11 0 -4
BITMAP
7380
F380
3B80
1B80
1F00
7700
6700
0700
0E00
0E00
0F00
ENDCHAR
STARTCHAR uni02BB
ENCODING 699
SWIDTH 246 0
DWIDTH 4 0
BBX 3 4 1 6
BITMAP
20
40
C0
C0
ENDCHAR
STARTCHAR afii57929
ENCODING 700
SWIDTH 246 0
DWIDTH 4 0
BBX 3 4 0 6
BITMAP
60
60
40
80
ENDCHAR
STARTCHAR afii64937
ENCODING 701
SWIDTH 246 0
DWIDTH 4 0
BBX 3 4 0 6
BITMAP
C0
C0
40
20
ENDCHAR
STARTCHAR circumflex
ENCODING 710
SWIDTH 400 0
DWIDTH 6 0
BBX 4 2 1 8
BITMAP
60
B0
ENDCHAR
STARTCHAR caron
ENCODING 711
SWIDTH 400 0
DWIDTH 6 0
BBX 4 2 1 8
BITMAP
D0
60
ENDCHAR
STARTCHAR uni02C8
ENCODING 712
SWIDTH 246 0
DWIDTH 5 0
BBX 2 5 2 5
BITMAP
C0
C0
80
80
80
ENDCHAR
STARTCHAR macron
ENCODING 713
SWIDTH 400 0
DWIDTH 6 0
BBX 5 1 1 8
BITMAP
F8
ENDCHAR
STARTCHAR uni02CA
ENCODING 714
SWIDTH 400 0
DWIDTH 6 0
BBX 3 2 1 8
BITMAP
60
C0
ENDCHAR
STARTCHAR uni02CB
ENCODING 715
SWIDTH 400 0
DWIDTH 6 0
BBX 3 2 1 8
BITMAP
C0
60
ENDCHAR
STARTCHAR uni02CD
ENCODING 717
SWIDTH 400 0
DWIDTH 6 0
BBX 5 1 1 -2
BITMAP
F8
ENDCHAR
STARTCHAR uni02CE
ENCODING 718
SWIDTH 400 0
DWIDTH 6 0
BBX 3 2 1 -3
BITMAP
C0
60
ENDCHAR
STARTCHAR uni02CF
ENCODING 719
SWIDTH 400 0
DWIDTH 6 0
BBX 3 2 1 -3
BITMAP
60
C0
ENDCHAR
STARTCHAR breve
ENCODING 728
SWIDTH 400 0
DWIDTH 6 0
BBX 5 2 1 8
BITMAP
88
70
ENDCHAR
STARTCHAR dotaccent
ENCODING 729
SWIDTH 402 0
DWIDTH 6 0
BBX 2 2 2 8
BITMAP
C0
C0
ENDCHAR
STARTCHAR ring
ENCODING 730
SWIDTH 400 0
DWIDTH 6 0
BBX 4 3 1 8
BITMAP
60
90
60
ENDCHAR
STARTCHAR ogonek
ENCODING 731
SWIDTH 350 0
DWIDTH 5 0
BBX 2 3 1 -3
BITMAP
40
80
C0
ENDCHAR
STARTCHAR tilde
ENCODING 732
SWIDTH 400 0
DWIDTH 6 0
BBX 5 2 1 8
BITMAP
68
B0
ENDCHAR
STARTCHAR hungarumlaut
ENCODING 733
SWIDTH 400 0
DWIDTH 6 0
BBX 6 2 0 8
BITMAP
6C
D8
ENDCHAR
STARTCHAR uni02EE
ENCODING 750
SWIDTH 455 0
DWIDTH 7 0
BBX 6 4 0 6
BITMAP
6C
6C
48
90
ENDCHAR
STARTCHAR uni037E
ENCODING 894
SWIDTH 280 0
DWIDTH 4 0
BBX 4 9 -1 -2
BITMAP
30
30
00
00
00
60
60
40
80
ENDCHAR
STARTCHAR tonos
ENCODING 900
SWIDTH 400 0
DWIDTH 6 0
BBX 3 2 1 8
BITMAP
60
C0
ENDCHAR
STARTCHAR dieresistonos
ENCODING 901
SWIDTH 400 0
DWIDTH 6 0
BBX 5 5 1 8
BITMAP
30
60
00
D8
D8
ENDCHAR
STARTCHAR anoteleia
ENCODING 903
SWIDTH 280 0
DWIDTH 4 0
BBX 4 3 0 3
BITMAP
60
F0
60
ENDCHAR
STARTCHAR mu
ENCODING 956
SWIDTH 634 0
DWIDTH 10 0
BBX 11 10 -1 -3
BITMAP
79C0
39C0
39C0
7380
7780
7BA0
71C0
E000
E000
E000
ENDCHAR
STARTCHAR uni1E00
ENCODING 7680
SWIDTH 634 0
DWIDTH 9 0
BBX 10 14 -2 -4
BITMAP
0300
0700
0700
0B00
1300
1380
3F80
4380
4380
E7C0
0000
0C00
1200
0C00
ENDCHAR
STARTCHAR uni1E01
ENCODING 7681
SWIDTH 596 0
DWIDTH 9 0
BBX 9 11 0 -4
BITMAP
3F00
7700
6700
EE00
EE00
FE80
6700
0000
1800
2400
1800
ENDCHAR
STARTCHAR uni1E02
ENCODING 7682
SWIDTH 680 0
DWIDTH 10 0
BBX 11 13 -1 0
BITMAP
0600
0600
0000
3FC0
1CE0
1CE0
39C0
3F80
39C0
39C0
71C0
7380
FF00
ENDCHAR
STARTCHAR uni1E03
ENCODING 7683
SWIDTH 586 0
DWIDTH 9 0
BBX 8 14 0 0
BITMAP
18
18
00
78
38
38
70
76
7F
77
E7
E6
EE
FC
ENDCHAR
STARTCHAR uni1E04
ENCODING 7684
SWIDTH 680 0
DWIDTH 10 0
BBX 11 13 -1 -3
BITMAP
3FC0
1CE0
1CE0
39C0
3F80
39C0
39C0
71C0
7380
FF00
0000
0C00
0C00
ENDCHAR
STARTCHAR uni1E05
ENCODING 7685
SWIDTH 586 0
DWIDTH 9 0
BBX 8 14 0 -3
BITMAP
78
38
38
70
76
7F
77
E7
E6
EE
FC
00
18
18
ENDCHAR
STARTCHAR uni1E06
ENCODING 7686
SWIDTH 680 0
DWIDTH 10 0
BBX 11 12 -1 -2
BITMAP
3FC0
1CE0
1CE0
39C0
3F80
39C0
39C0
71C0
7380
FF00
0000
1F00
ENDCHAR
STARTCHAR uni1E07
ENCODING 7687
SWIDTH 586 0
DWIDTH 9 0
BBX 8 13 0 -2
BITMAP
78
38
38
70
76
7F
77
E7
E6
EE
FC
00
7C
ENDCHAR
STARTCHAR uni1E08
ENCODING 7688
SWIDTH 672 0
DWIDTH 10 0
BBX 9 16 0 -3
BITMAP
0600
0C00
0000
0F80
3980
7080
7000
E000
E000
E000
E100
6300
3E00
1000
0800
3800
ENDCHAR
STARTCHAR uni1E09
ENCODING 7689
SWIDTH 456 0
DWIDTH 7 0
BBX 6 13 0 -3
BITMAP
18
30
00
3C
74
60
E0
E4
E8
70
40
20
E0
ENDCHAR
STARTCHAR uni1E0A
ENCODING 7690
SWIDTH 774 0
DWIDTH 12 0
BBX 12 13 -1 0
BITMAP
0600
0600
0000
3FC0
1C60
1C70
3870
3870
3870
38E0
70E0
71C0
FF00
ENDCHAR
STARTCHAR uni1E0B
ENCODING 7691
SWIDTH 609 0
DWIDTH 9 0
BBX 9 14 0 0
BITMAP
0600
0600
0000
0780
0380
0380
0380
3F00
7700
6700
E700
EE00
FE80
6700
ENDCHAR
STARTCHAR uni1E0C
ENCODING 7692
SWIDTH 774 0
DWIDTH 12 0
BBX 12 13 -1 -3
BITMAP
3FC0
1C60
1C70
3870
3870
3870
38E0
70E0
71C0
FF00
0000
0C00
0C00
ENDCHAR
STARTCHAR uni1E0D
ENCODING 7693
SWIDTH 609 0
DWIDTH 9 0
BBX 9 14 0 -3
BITMAP
0780
0380
0380
0380
3F00
7700
6700
E700
EE00
FE80
6700
0000
1800
1800
ENDCHAR
STARTCHAR uni1E0E
ENCODING 7694
SWIDTH 774 0
DWIDTH 12 0
BBX 12 12 -1 -2
BITMAP
3FC0
1C60
1C70
3870
3870
3870
38E0
70E0
71C0
FF00
0000
1F00
ENDCHAR
STARTCHAR uni1E0F
ENCODING 7695
SWIDTH 609 0
DWIDTH 9 0
BBX 9 13 0 -2
BITMAP
0780
0380
0380
0380
3F00
7700
6700
E700
EE00
FE80
6700
0000
3E00
ENDCHAR
STARTCHAR uni1E10
ENCODING 7696
SWIDTH 774 0
DWIDTH 12 0
BBX 12 13 -1 -3
BITMAP
3FC0
1C60
1C70
3870
3870
3870
38E0
70E0
71C0
FF00
0400
0200
0E00
ENDCHAR
STARTCHAR uni1E11
ENCODING 7697
SWIDTH 609 0
DWIDTH 9 0
BBX 9 14 0 -3
BITMAP
0780
0380
0380
0380
3F00
7700
6700
E700
EE00
FE80
6700
0800
0400
1C00
ENDCHAR
STARTCHAR uni1E12
ENCODING 7698
SWIDTH 774 0
DWIDTH 12 0
BBX 12 13 -1 -3
BITMAP
3FC0
1C60
1C70
3870
3870
3870
38E0
70E0
71C0
FF00
0000
0C00
1600
ENDCHAR
STARTCHAR uni1E13
ENCODING 7699
SWIDTH 609 0
DWIDTH 9 0
BBX 9 14 0 -3
BITMAP
0780
0380
0380
0380
3F00
7700
6700
E700
EE00
FE80
6700
0000
1800
2C00
ENDCHAR
STARTCHAR uni1E14
ENCODING 7700
SWIDTH 622 0
DWIDTH 9 0
BBX 10 15 -1 0
BITMAP
0C00
0600
0000
1F00
0000
3FC0
1CC0
1C40
3900
3F00
3900
3800
7080
7180
FF80
ENDCHAR
STARTCHAR uni1E15
ENCODING 7701
SWIDTH 476 0
DWIDTH 7 0
BBX 6 12 0 0
BITMAP
30
18
00
7C
00
3C
74
68
F0
E4
E8
70
ENDCHAR
STARTCHAR uni1E16
ENCODING 7702
SWIDTH 622 0
DWIDTH 9 0
BBX 10 15 -1 0
BITMAP
0600
0C00
0000
1F00
0000
3FC0
1CC0
1C40
3900
3F00
3900
3800
7080
7180
FF80
ENDCHAR
STARTCHAR uni1E17
ENCODING 7703
SWIDTH 476 0
DWIDTH 7 0
BBX 6 12 0 0
BITMAP
18
30
00
7C
00
3C
74
68
F0
E4
E8
70
ENDCHAR
STARTCHAR uni1E18
ENCODING 7704
SWIDTH 622 0
DWIDTH 9 0
BBX 10 13 -1 -3
BITMAP
3FC0
1CC0
1C40
3900
3F00
3900
3800
7080
7180
FF80
0000
0C00
1600
ENDCHAR
STARTCHAR uni1E19
ENCODING 7705
SWIDTH 476 0
DWIDTH 7 0
BBX 6 10 0 -3
BITMAP
3C
74
68
F0
E4
E8
70
00
30
58
ENDCHAR
STARTCHAR uni1E1A
ENCODING 7706
SWIDTH 622 0
DWIDTH 9 0
BBX 10 13 -1 -3
BITMAP
3FC0
1CC0
1C40
3900
3F00
3900
3800
7080
7180
FF80
0000
1A00
2C00
ENDCHAR
STARTCHAR uni1E1B
ENCODING 7707
SWIDTH 476 0
DWIDTH 7 0
BBX 6 10 0 -3
BITMAP
3C
74
68
F0
E4
E8
70
00
68
B0
ENDCHAR
STARTCHAR uni1E1C
ENCODING 7708
SWIDTH 622 0
DWIDTH 9 0
BBX 10 16 -1 -3
BITMAP
1100
0E00
0000
3FC0
1CC0
1C40
3900
3F00
3900
3800
7080
7180
FF80
0800
0400
1C00
ENDCHAR
STARTCHAR uni1E1D
ENCODING 7709
SWIDTH 476 0
DWIDTH 7 0
BBX 6 13 0 -3
BITMAP
44
38
00
3C
74
68
F0
E4
E8
70
20
10
70
ENDCHAR
STARTCHAR uni1E1E
ENCODING 7710
SWIDTH 585 0
DWIDTH 9 0
BBX 10 13 -1 0
BITMAP
0600
0600
0000
3FC0
1CC0
1C40
3900
3F00
3900
3800
7000
7000
F800
ENDCHAR
STARTCHAR uni1E1F
ENCODING 7711
SWIDTH 348 0
DWIDTH 5 0
BBX 9 17 -2 -3
BITMAP
0600
0600
0000
0380
0680
0E00
0E00
3F00
1C00
1C00
1C00
3800
3800
3800
3800
B000
E000
ENDCHAR
STARTCHAR uni1E20
ENCODING 7712
SWIDTH 726 0
DWIDTH 10 0
BBX 10 12 0 0
BITMAP
1F00
0000
0F80
3980
7080
7000
E000
E7C0
E380
E380
6780
3E00
ENDCHAR
STARTCHAR uni1E21
ENCODING 7713
SWIDTH 522 0
DWIDTH 8 0
BBX 9 12 -1 -3
BITMAP
3E00
0000
1F80
3700
7700
7600
3C00
3800
3E00
4F00
C700
7E00
ENDCHAR
STARTCHAR uni1E22
ENCODING 7714
SWIDTH 800 0
DWIDTH 12 0
BBX 13 13 -1 0
BITMAP
0300
0300
0000
3EF8
1C70
1C70
38E0
3FE0
38E0
38E0
71C0
71C0
FBE0
ENDCHAR
STARTCHAR uni1E23
ENCODING 7715
SWIDTH 629 0
DWIDTH 9 0
BBX 9 14 0 0
BITMAP
1800
1800
0000
7800
3800
3800
3800
7600
7F00
7700
6700
EE00
EE80
E700
ENDCHAR
STARTCHAR uni1E24
ENCODING 7716
SWIDTH 800 0
DWIDTH 12 0
BBX 13 13 -1 -3
BITMAP
3EF8
1C70
1C70
38E0
3FE0
38E0
38E0
71C0
71C0
FBE0
0000
0600
0600
ENDCHAR
STARTCHAR uni1E25
ENCODING 7717
SWIDTH 629 0
DWIDTH 9 0
BBX 9 14 0 -3
BITMAP
7800
3800
3800
3800
7600
7F00
7700
6700
EE00
EE80
E700
0000
1800
1800
ENDCHAR
STARTCHAR uni1E26
ENCODING 7718
SWIDTH 800 0
DWIDTH 12 0
BBX 13 13 -1 0
BITMAP
06C0
06C0
0000
3EF8
1C70
1C70
38E0
3FE0
38E0
38E0
71C0
71C0
FBE0
ENDCHAR
STARTCHAR uni1E27
ENCODING 7719
SWIDTH 629 0
DWIDTH 9 0
BBX 9 14 0 0
BITMAP
6C00
6C00
0000
7800
3800
3800
3800
7600
7F00
7700
6700
EE00
EE80
E700
ENDCHAR
STARTCHAR uni1E28
ENCODING 7720
SWIDTH 800 0
DWIDTH 12 0
BBX 13 13 -1 -3
BITMAP
3EF8
1C70
1C70
38E0
3FE0
38E0
38E0
71C0
71C0
FBE0
0400
0200
0E00
ENDCHAR
STARTCHAR uni1E29
ENCODING 7721
SWIDTH 629 0
DWIDTH 9 0
BBX 9 14 0 -3
BITMAP
7800
3800
3800
3800
7600
7F00
7700
6700
EE00
EE80
E700
0800
0400
1C00
ENDCHAR
STARTCHAR uni1E2A
ENCODING 7722
SWIDTH 800 0
DWIDTH 12 0
BBX 13 13 -1 -3
BITMAP
3EF8
1C70
1C70
38E0
3FE0
38E0
38E0
71C0
71C0
FBE0
0000
1100
0E00
ENDCHAR
STARTCHAR uni1E2B
ENCODING 7723
SWIDTH 629 0
DWIDTH 9 0
BBX 9 14 0 -3
BITMAP
7800
3800
3800
3800
7600
7F00
7700
6700
EE00
EE80
E700
0000
2200
1C00
ENDCHAR
STARTCHAR uni1E2C
ENCODING 7724
SWIDTH 386 0
DWIDTH 6 0
BBX 7 13 -1 -3
BITMAP
3E
1C
1C
38
38
38
38
70
70
F8
00
68
B0
ENDCHAR
STARTCHAR uni1E2D
ENCODING 7725
SWIDTH 339 0
DWIDTH 5 0
BBX 5 13 0 -3
BITMAP
38
38
00
F0
70
70
E0
E0
E8
70
00
68
B0
ENDCHAR
STARTCHAR uni1E2E
ENCODING 7726
SWIDTH 386 0
DWIDTH 6 0
BBX 7 15 -1 0
BITMAP
0C
18
00
36
36
00
3E
1C
1C
38
38
38
70
70
F8
ENDCHAR
STARTCHAR uni1E2F
ENCODING 7727
SWIDTH 339 0
DWIDTH 5 0
BBX 5 13 0 0
BITMAP
30
60
00
D8
D8
00
F0
70
70
E0
E0
E8
70
ENDCHAR
STARTCHAR uni1E30
ENCODING 7728
SWIDTH 688 0
DWIDTH 12 0
BBX 12 13 0 0
BITMAP
0300
0600
0000
3EF0
1C60
1C80
3900
3B00
3F00
3B80
7380
71C0
F9E0
ENDCHAR
STARTCHAR uni1E31
ENCODING 7729
SWIDTH 570 0
DWIDTH 8 0
BBX 9 14 0 0
BITMAP
0C00
1800
0000
7800
3800
3800
7000
7300
7700
7C00
EC00
EE00
E780
E700
ENDCHAR
STARTCHAR uni1E32
ENCODING 7730
SWIDTH 688 0
DWIDTH 12 0
BBX 12 13 0 -3
BITMAP
3EF0
1C60
1C80
3900
3B00
3F00
3B80
7380
71C0
F9E0
0000
0600
0600
ENDCHAR
STARTCHAR uni1E33
ENCODING 7731
SWIDTH 570 0
DWIDTH 8 0
BBX 9 14 0 -3
BITMAP
7800
3800
3800
7000
7300
7700
7C00
EC00
EE00
E780
E700
0000
1800
1800
ENDCHAR
STARTCHAR uni1E34
ENCODING 7732
SWIDTH 688 0
DWIDTH 12 0
BBX 12 12 0 -2
BITMAP
3EF0
1C60
1C80
3900
3B00
3F00
3B80
7380
71C0
F9E0
0000
1F00
ENDCHAR
STARTCHAR uni1E35
ENCODING 7733
SWIDTH 570 0
DWIDTH 8 0
BBX 9 13 0 -2
BITMAP
7800
3800
3800
7000
7300
7700
7C00
EC00
EE00
E780
E700
0000
3E00
ENDCHAR
STARTCHAR uni1E36
ENCODING 7734
SWIDTH 586 0
DWIDTH 9 0
BBX 9 13 -1 -3
BITMAP
3E00
1C00
1C00
3800
3800
3800
3800
7080
7180
FF80
0000
1800
1800
ENDCHAR
STARTCHAR uni1E37
ENCODING 7735
SWIDTH 327 0
DWIDTH 5 0
BBX 5 14 0 -3
BITMAP
78
38
38
70
70
70
70
E0
E0
E8
70
00
60
60
ENDCHAR
STARTCHAR uni1E38
ENCODING 7736
SWIDTH 586 0
DWIDTH 9 0
BBX 9 15 -1 -3
BITMAP
3E00
0000
3E00
1C00
1C00
3800
3800
3800
3800
7080
7180
FF80
0000
1800
1800
ENDCHAR
STARTCHAR uni1E39
ENCODING 7737
SWIDTH 327 0
DWIDTH 5 0
BBX 5 16 0 -3
BITMAP
F8
00
78
38
38
70
70
70
70
E0
E0
E8
70
00
60
60
ENDCHAR
STARTCHAR uni1E3A
ENCODING 7738
SWIDTH 586 0
DWIDTH 9 0
BBX 9 12 -1 -2
BITMAP
3E00
1C00
1C00
3800
3800
3800
3800
7080
7180
FF80
0000
3E00
ENDCHAR
STARTCHAR uni1E3B
ENCODING 7739
SWIDTH 327 0
DWIDTH 5 0
BBX 5 13 0 -2
BITMAP
78
38
38
70
70
70
70
E0
E0
E8
70
00
F8
ENDCHAR
STARTCHAR uni1E3C
ENCODING 7740
SWIDTH 586 0
DWIDTH 9 0
BBX 9 13 -1 -3
BITMAP
3E00
1C00
1C00
3800
3800
3800
3800
7080
7180
FF80
0000
1800
2C00
ENDCHAR
STARTCHAR uni1E3D
ENCODING 7741
SWIDTH 327 0
DWIDTH 5 0
BBX 5 14 0 -3
BITMAP
78
38
38
70
70
70
70
E0
E0
E8
70
00
60
B0
ENDCHAR
STARTCHAR uni1E3E
ENCODING 7742
SWIDTH 921 0
DWIDTH 14 0
BBX 15 13 -1 0
BITMAP
00C0
0180
0000
3C1E
1C3C
1C5C
2E78
2EB8
2F38
2F38
4670
4670
E4F8
ENDCHAR
STARTCHAR uni1E3F
ENCODING 7743
SWIDTH 914 0
DWIDTH 13 0
BBX 13 10 0 0
BITMAP
0300
0600
0000
F660
7FF0
7770
7770
EEE0
EEE8
EE70
ENDCHAR
STARTCHAR uni1E40
ENCODING 7744
SWIDTH 921 0
DWIDTH 14 0
BBX 15 13 -1 0
BITMAP
0180
0180
0000
3C1E
1C3C
1C5C
2E78
2EB8
2F38
2F38
4670
4670
E4F8
ENDCHAR
STARTCHAR uni1E41
ENCODING 7745
SWIDTH 914 0
DWIDTH 13 0
BBX 13 10 0 0
BITMAP
0600
0600
0000
F660
7FF0
7770
7770
EEE0
EEE8
EE70
ENDCHAR
STARTCHAR uni1E42
ENCODING 7746
SWIDTH 921 0
DWIDTH 14 0
BBX 15 13 -1 -3
BITMAP
3C1E
1C3C
1C5C
2E78
2EB8
2F38
2F38
4670
4670
E4F8
0000
0300
0300
ENDCHAR
STARTCHAR uni1E43
ENCODING 7747
SWIDTH 914 0
DWIDTH 13 0
BBX 13 10 0 -3
BITMAP
F660
7FF0
7770
7770
EEE0
EEE8
EE70
0000
0600
0600
ENDCHAR
STARTCHAR uni1E44
ENCODING 7748
SWIDTH 741 0
DWIDTH 11 0
BBX 12 13 -1 0
BITMAP
0600
0600
0000
3C70
1C20
1E20
3E40
2F40
27C0
27C0
4380
4380
E180
ENDCHAR
STARTCHAR uni1E45
ENCODING 7749
SWIDTH 635 0
DWIDTH 9 0
BBX 9 10 0 0
BITMAP
1800
1800
0000
F600
7F00
7700
7700
EE00
EE80
E700
ENDCHAR
STARTCHAR uni1E46
ENCODING 7750
SWIDTH 741 0
DWIDTH 11 0
BBX 12 13 -1 -3
BITMAP
3C70
1C20
1E20
3E40
2F40
27C0
27C0
4380
4380
E180
0000
0600
0600
ENDCHAR
STARTCHAR uni1E47
ENCODING 7751
SWIDTH 635 0
DWIDTH 9 0
BBX 9 10 0 -3
BITMAP
F600
7F00
7700
7700
EE00
EE80
E700
0000
1800
1800
ENDCHAR
STARTCHAR uni1E48
ENCODING 7752
SWIDTH 741 0
DWIDTH 11 0
BBX 12 12 -1 -2
BITMAP
3C70
1C20
1E20
3E40
2F40
27C0
27C0
4380
4380
E180
0000
1F00
ENDCHAR
STARTCHAR uni1E49
ENCODING 7753
SWIDTH 635 0
DWIDTH 9 0
BBX 9 9 0 -2
BITMAP
F600
7F00
7700
7700
EE00
EE80
E700
0000
3E00
ENDCHAR
STARTCHAR uni1E4A
ENCODING 7754
SWIDTH 741 0
DWIDTH 11 0
BBX 12 13 -1 -3
BITMAP
3C70
1C20
1E20
3E40
2F40
27C0
27C0
4380
4380
E180
0000
0600
0B00
ENDCHAR
STARTCHAR uni1E4B
ENCODING 7755
SWIDTH 635 0
DWIDTH 9 0
BBX 9 10 0 -3
BITMAP
F600
7F00
7700
7700
EE00
EE80
E700
0000
1800
2C00
ENDCHAR
STARTCHAR uni1E4C
ENCODING 7756
SWIDTH 761 0
DWIDTH 12 0
BBX 11 15 0 0
BITMAP
0300
0600
0000
0680
0B00
0000
0F80
38C0
70E0
70E0
F1E0
E1C0
E1C0
6380
3E00
ENDCHAR
STARTCHAR uni1E4D
ENCODING 7757
SWIDTH 562 0
DWIDTH 8 0
BBX 8 13 0 0
BITMAP
0C
18
00
1A
2C
00
3E
77
67
E7
E6
EE
7C
ENDCHAR
STARTCHAR uni1E4E
ENCODING 7758
SWIDTH 761 0
DWIDTH 12 0
BBX 11 15 0 0
BITMAP
0D80
0D80
0000
0680
0B00
0000
0F80
38C0
70E0
70E0
F1E0
E1C0
E1C0
6380
3E00
ENDCHAR
STARTCHAR uni1E4F
ENCODING 7759
SWIDTH 562 0
DWIDTH 8 0
BBX 8 13 0 0
BITMAP
36
36
00
1A
2C
00
3E
77
67
E7
E6
EE
7C
ENDCHAR
STARTCHAR uni1E50
ENCODING 7760
SWIDTH 761 0
DWIDTH 12 0
BBX 11 15 0 0
BITMAP
0C00
0600
0000
1F00
0000
0F80
38C0
70E0
70E0
F0E0
E1E0
E1C0
E1C0
6380
3E00
ENDCHAR
STARTCHAR uni1E51
ENCODING 7761
SWIDTH 562 0
DWIDTH 8 0
BBX 8 12 0 0
BITMAP
18
0C
00
3E
00
3E
77
67
E7
E6
EE
7C
ENDCHAR
STARTCHAR uni1E52
ENCODING 7762
SWIDTH 761 0
DWIDTH 12 0
BBX 11 15 0 0
BITMAP
0300
0600
0000
1F00
0000
0F80
38C0
70E0
70E0
F0E0
E1E0
E1C0
E1C0
6380
3E00
ENDCHAR
STARTCHAR uni1E53
ENCODING 7763
SWIDTH 562 0
DWIDTH 8 0
BBX 8 12 0 0
BITMAP
0C
18
00
3E
00
3E
77
67
E7
E6
EE
7C
ENDCHAR
STARTCHAR uni1E54
ENCODING 7764
SWIDTH 660 0
DWIDTH 10 0
BBX 11 13 -1 0
BITMAP
0300
0600
0000
3FC0
1CE0
1CE0
38E0
39C0
3F80
3800
7000
7000
F800
ENDCHAR
STARTCHAR uni1E55
ENCODING 7765
SWIDTH 606 0
DWIDTH 9 0
BBX 9 13 -1 -3
BITMAP
0600
0C00
0000
7B00
3F80
3B80
7380
7300
7700
7E00
E000
E000
E000
ENDCHAR
STARTCHAR uni1E56
ENCODING 7766
SWIDTH 660 0
DWIDTH 10 0
BBX 11 13 -1 0
BITMAP
0600
0600
0000
3FC0
1CE0
1CE0
38E0
39C0
3F80
3800
7000
7000
F800
ENDCHAR
STARTCHAR uni1E57
ENCODING 7767
SWIDTH 606 0
DWIDTH 9 0
BBX 9 13 -1 -3
BITMAP
0C00
0C00
0000
7B00
3F80
3B80
7380
7300
7700
7E00
E000
E000
E000
ENDCHAR
STARTCHAR uni1E58
ENCODING 7768
SWIDTH 681 0
DWIDTH 10 0
BBX 11 13 -1 0
BITMAP
0600
0600
0000
3FC0
1CE0
1CE0
39C0
3F80
3B80
3B80
71C0
71C0
F9E0
ENDCHAR
STARTCHAR uni1E59
ENCODING 7769
SWIDTH 440 0
DWIDTH 6 0
BBX 6 10 0 0
BITMAP
30
30
00
EC
7C
70
70
E0
E0
E0
ENDCHAR
STARTCHAR uni1E5A
ENCODING 7770
SWIDTH 681 0
DWIDTH 10 0
BBX 11 13 -1 -3
BITMAP
3FC0
1CE0
1CE0
39C0
3F80
3B80
3B80
71C0
71C0
F9E0
0000
0C00
0C00
ENDCHAR
STARTCHAR uni1E5B
ENCODING 7771
SWIDTH 440 0
DWIDTH 6 0
BBX 6 10 0 -3
BITMAP
EC
7C
70
70
E0
E0
E0
00
60
60
ENDCHAR
STARTCHAR uni1E5C
ENCODING 7772
SWIDTH 681 0
DWIDTH 10 0
BBX 11 15 -1 -3
BITMAP
0F80
0000
3FC0
1CE0
1CE0
39C0
3F80
3B80
3B80
71C0
71C0
F9E0
0000
0C00
0C00
ENDCHAR
STARTCHAR uni1E5D
ENCODING 7773
SWIDTH 440 0
DWIDTH 6 0
BBX 6 12 0 -3
BITMAP
7C
00
EC
7C
70
70
E0
E0
E0
00
60
60
ENDCHAR
STARTCHAR uni1E5E
ENCODING 7774
SWIDTH 681 0
DWIDTH 10 0
BBX 11 12 -1 -2
BITMAP
3FC0
1CE0
1CE0
39C0
3F80
3B80
3B80
71C0
71C0
F9E0
0000
1F00
ENDCHAR
STARTCHAR uni1E5F
ENCODING 7775
SWIDTH 440 0
DWIDTH 6 0
BBX 6 9 0 -2
BITMAP
EC
7C
70
70
E0
E0
E0
00
F8
ENDCHAR
STARTCHAR uni1E60
ENCODING 7776
SWIDTH 551 0
DWIDTH 8 0
BBX 9 13 -1 0
BITMAP
0C00
0C00
0000
0F80
1980
3100
3800
3C00
1E00
0E00
4600
CC00
F800
ENDCHAR
STARTCHAR uni1E61
ENCODING 7777
SWIDTH 417 0
DWIDTH 6 0
BBX 7 10 -1 0
BITMAP
18
18
00
1C
36
78
3C
1C
D8
70
ENDCHAR
STARTCHAR uni1E62
ENCODING 7778
SWIDTH 551 0
DWIDTH 8 0
BBX 9 13 -1 -3
BITMAP
0F80
1980
3100
3800
3C00
1E00
0E00
4600
CC00
F800
0000
1800
1800
ENDCHAR
STARTCHAR uni1E63
ENCODING 7779
SWIDTH 417 0
DWIDTH 6 0
BBX 7 10 -1 -3
BITMAP
1C
36
78
3C
1C
D8
70
00
30
30
ENDCHAR
STARTCHAR uni1E64
ENCODING 7780
SWIDTH 551 0
DWIDTH 8 0
BBX 9 16 -1 0
BITMAP
0600
0600
0000
0600
0C00
0000
0F80
1980
3100
3800
3C00
1E00
0E00
4600
CC00
F800
ENDCHAR
STARTCHAR uni1E65
ENCODING 7781
SWIDTH 417 0
DWIDTH 6 0
BBX 7 13 -1 0
BITMAP
18
18
00
0C
18
00
1C
36
78
3C
1C
D8
70
ENDCHAR
STARTCHAR uni1E66
ENCODING 7782
SWIDTH 551 0
DWIDTH 8 0
BBX 9 15 -1 0
BITMAP
0600
0600
0000
0D00
0600
0000
0F80
1980
3900
3C00
1E00
0E00
4600
CC00
F800
ENDCHAR
STARTCHAR uni1E67
ENCODING 7783
SWIDTH 417 0
DWIDTH 6 0
BBX 7 13 -1 0
BITMAP
18
18
00
1A
0C
00
1C
36
78
3C
1C
D8
70
ENDCHAR
STARTCHAR uni1E68
ENCODING 7784
SWIDTH 551 0
DWIDTH 8 0
BBX 9 16 -1 -3
BITMAP
0C00
0C00
0000
0F80
1980
3100
3800
3C00
1E00
0E00
4600
CC00
F800
0000
1800
1800
ENDCHAR
STARTCHAR uni1E69
ENCODING 7785
SWIDTH 417 0
DWIDTH 6 0
BBX 7 13 -1 -3
BITMAP
18
18
00
1C
36
78
3C
1C
D8
70
00
30
30
ENDCHAR
STARTCHAR uni1E6A
ENCODING 7786
SWIDTH 616 0
DWIDTH 9 0
BBX 9 13 0 0
BITMAP
0C00
0C00
0000
FF80
DD80
9C80
3800
3800
3800
3800
7000
7000
F800
ENDCHAR
STARTCHAR uni1E6B
ENCODING 7787
SWIDTH 359 0
DWIDTH 5 0
BBX 5 12 0 0
BITMAP
30
30
00
30
70
F8
70
70
E0
E0
E8
70
ENDCHAR
STARTCHAR uni1E6C
ENCODING 7788
SWIDTH 616 0
DWIDTH 9 0
BBX 9 13 0 -3
BITMAP
FF80
DD80
9C80
3800
3800
3800
3800
7000
7000
F800
0000
3000
3000
ENDCHAR
STARTCHAR uni1E6D
ENCODING 7789
SWIDTH 359 0
DWIDTH 5 0
BBX 5 12 0 -3
BITMAP
30
70
F8
70
70
E0
E0
E8
70
00
60
60
ENDCHAR
STARTCHAR uni1E6E
ENCODING 7790
SWIDTH 616 0
DWIDTH 9 0
BBX 9 12 0 -2
BITMAP
FF80
DD80
9C80
3800
3800
3800
3800
7000
7000
F800
0000
7C00
ENDCHAR
STARTCHAR uni1E6F
ENCODING 7791
SWIDTH 359 0
DWIDTH 5 0
BBX 5 11 0 -2
BITMAP
30
70
F8
70
70
E0
E0
E8
70
00
F8
ENDCHAR
STARTCHAR uni1E70
ENCODING 7792
SWIDTH 616 0
DWIDTH 9 0
BBX 9 13 0 -3
BITMAP
FF80
DD80
9C80
3800
3800
3800
3800
7000
7000
F800
0000
3000
5800
ENDCHAR
STARTCHAR uni1E71
ENCODING 7793
SWIDTH 359 0
DWIDTH 5 0
BBX 5 12 0 -3
BITMAP
30
70
F8
70
70
E0
E0
E8
70
00
60
B0
ENDCHAR
STARTCHAR uni1E72
ENCODING 7794
SWIDTH 776 0
DWIDTH 12 0
BBX 12 13 0 -3
BITMAP
7DF0
38E0
38E0
71C0
71C0
71C0
E380
E380
E380
7F00
0000
1B00
1B00
ENDCHAR
STARTCHAR uni1E73
ENCODING 7795
SWIDTH 634 0
DWIDTH 9 0
BBX 9 10 0 -3
BITMAP
F700
7700
7700
EE00
EE00
FE80
6700
0000
3600
3600
ENDCHAR
STARTCHAR uni1E74
ENCODING 7796
SWIDTH 776 0
DWIDTH 12 0
BBX 12 13 0 -3
BITMAP
7DF0
38E0
38E0
71C0
71C0
71C0
E380
E380
E380
7F00
0000
1A00
2C00
ENDCHAR
STARTCHAR uni1E75
ENCODING 7797
SWIDTH 634 0
DWIDTH 9 0
BBX 9 10 0 -3
BITMAP
F700
7700
7700
EE00
EE00
FE80
6700
0000
1A00
2C00
ENDCHAR
STARTCHAR uni1E76
ENCODING 7798
SWIDTH 776 0
DWIDTH 12 0
BBX 12 13 0 -3
BITMAP
7DF0
38E0
38E0
71C0
71C0
71C0
E380
E380
E380
7F00
0000
0C00
1600
ENDCHAR
STARTCHAR uni1E77
ENCODING 7799
SWIDTH 634 0
DWIDTH 9 0
BBX 9 10 0 -3
BITMAP
F700
7700
7700
EE00
EE00
FE80
6700
0000
1800
2C00
ENDCHAR
STARTCHAR uni1E78
ENCODING 7800
SWIDTH 776 0
DWIDTH 12 0
BBX 12 16 0 0
BITMAP
0300
0600
0000
0680
0B00
0000
7DF0
38E0
38E0
71C0
71C0
71C0
E380
E380
E380
7F00
ENDCHAR
STARTCHAR uni1E79
ENCODING 7801
SWIDTH 634 0
DWIDTH 9 0
BBX 9 13 0 0
BITMAP
0C00
1800
0000
1A00
2C00
0000
F700
7700
7700
EE00
EE00
FE80
6700
ENDCHAR
STARTCHAR uni1E7A
ENCODING 7802
SWIDTH 776 0
DWIDTH 12 0
BBX 12 15 0 0
BITMAP
0D80
0D80
0000
0F80
0000
7DF0
38E0
38E0
71C0
71C0
71C0
E380
E380
E380
7F00
ENDCHAR
STARTCHAR uni1E7B
ENCODING 7803
SWIDTH 634 0
DWIDTH 9 0
BBX 9 12 0 0
BITMAP
3600
3600
0000
3E00
0000
F700
7700
7700
EE00
EE00
FE80
6700
ENDCHAR
STARTCHAR uni1E7C
ENCODING 7804
SWIDTH 630 0
DWIDTH 9 0
BBX 10 13 0 0
BITMAP
1A00
2C00
0000
F9C0
7080
7080
7100
7200
3A00
3C00
3800
3800
3000
ENDCHAR
STARTCHAR uni1E7D
ENCODING 7805
SWIDTH 518 0
DWIDTH 8 0
BBX 8 10 0 0
BITMAP
1A
2C
00
F3
73
72
E6
E4
E8
70
ENDCHAR
STARTCHAR uni1E7E
ENCODING 7806
SWIDTH 630 0
DWIDTH 9 0
BBX 10 13 0 -3
BITMAP
F9C0
7080
7080
7100
7200
3A00
3C00
3800
3800
3000
0000
1800
1800
ENDCHAR
STARTCHAR uni1E7F
ENCODING 7807
SWIDTH 518 0
DWIDTH 8 0
BBX 8 10 0 -3
BITMAP
F3
73
72
E6
E4
E8
70
00
30
30
ENDCHAR
STARTCHAR Wgrave
ENCODING 7808
SWIDTH 920 0
DWIDTH 14 0
BBX 15 13 0 0
BITMAP
0600
0300
0000
F9CE
71C4
71C4
73C8
73C8
34D0
34D0
38E0
38E0
30C0
ENDCHAR
STARTCHAR wgrave
ENCODING 7809
SWIDTH 795 0
DWIDTH 12 0
BBX 12 10 0 0
BITMAP
0C00
0600
0000
F330
7330
7730
E760
E640
EE80
7300
ENDCHAR
STARTCHAR Wacute
ENCODING 7810
SWIDTH 920 0
DWIDTH 14 0
BBX 15 13 0 0
BITMAP
0180
0300
0000
F9CE
71C4
71C4
73C8
73C8
34D0
34D0
38E0
38E0
30C0
ENDCHAR
STARTCHAR wacute
ENCODING 7811
SWIDTH 795 0
DWIDTH 12 0
BBX 12 10 0 0
BITMAP
0300
0600
0000
F330
7330
7730
E760
E640
EE80
7300
ENDCHAR
STARTCHAR Wdieresis
ENCODING 7812
SWIDTH 920 0
DWIDTH 14 0
BBX 15 13 0 0
BITMAP
06C0
06C0
0000
F9CE
71C4
71C4
73C8
73C8
34D0
34D0
38E0
38E0
30C0
ENDCHAR
STARTCHAR wdieresis
ENCODING 7813
SWIDTH 795 0
DWIDTH 12 0
BBX 12 10 0 0
BITMAP
1B00
1B00
0000
F330
7330
7730
E760
E640
EE80
7300
ENDCHAR
STARTCHAR uni1E86
ENCODING 7814
SWIDTH 920 0
DWIDTH 14 0
BBX 15 13 0 0
BITMAP
0300
0300
0000
F9CE
71C4
71C4
73C8
73C8
34D0
34D0
38E0
38E0
30C0
ENDCHAR
STARTCHAR uni1E87
ENCODING 7815
SWIDTH 795 0
DWIDTH 12 0
BBX 12 10 0 0
BITMAP
0600
0600
0000
F330
7330
7730
E760
E640
EE80
7300
ENDCHAR
STARTCHAR uni1E88
ENCODING 7816
SWIDTH 920 0
DWIDTH 14 0
BBX 15 13 0 -3
BITMAP
F9CE
71C4
71C4
73C8
73C8
34D0
34D0
38E0
38E0
30C0
0000
0300
0300
ENDCHAR
STARTCHAR uni1E89
ENCODING 7817
SWIDTH 795 0
DWIDTH 12 0
BBX 12 10 0 -3
BITMAP
F330
7330
7730
E760
E640
EE80
7300
0000
0C00
0C00
ENDCHAR
STARTCHAR uni1E8A
ENCODING 7818
SWIDTH 630 0
DWIDTH 10 0
BBX 11 13 -1 0
BITMAP
0600
0600
0000
3EE0
1C40
1C80
0F00
0E00
0E00
1E00
2700
4700
EF80
ENDCHAR
STARTCHAR uni1E8B
ENCODING 7819
SWIDTH 516 0
DWIDTH 8 0
BBX 9 10 -1 0
BITMAP
0C00
0C00
0000
7980
3A80
3A00
1C00
2E00
AE00
CF00
ENDCHAR
STARTCHAR uni1E8C
ENCODING 7820
SWIDTH 630 0
DWIDTH 10 0
BBX 11 13 -1 0
BITMAP
1B00
1B00
0000
3EE0
1C40
1C80
0F00
0E00
0E00
1E00
2700
4700
EF80
ENDCHAR
STARTCHAR uni1E8D
ENCODING 7821
SWIDTH 516 0
DWIDTH 8 0
BBX 9 10 -1 0
BITMAP
3600
3600
0000
7980
3A80
3A00
1C00
2E00
AE00
CF00
ENDCHAR
STARTCHAR uni1E8E
ENCODING 7822
SWIDTH 622 0
DWIDTH 9 0
BBX 9 13 1 0
BITMAP
1800
1800
0000
FB80
7100
7200
7400
3800
3800
3800
7000
7000
F800
ENDCHAR
STARTCHAR uni1E8F
ENCODING 7823
SWIDTH 489 0
DWIDTH 7 0
BBX 8 13 -1 -3
BITMAP
18
18
00
7B
3B
3A
3A
3C
18
18
10
E0
C0
ENDCHAR
STARTCHAR uni1E90
ENCODING 7824
SWIDTH 618 0
DWIDTH 9 0
BBX 10 13 -1 0
BITMAP
0C00
1600
0000
3FC0
3380
2700
0700
0E00
1C00
3800
3900
7300
FF00
ENDCHAR
STARTCHAR uni1E91
ENCODING 7825
SWIDTH 466 0
DWIDTH 7 0
BBX 6 10 0 0
BITMAP
30
58
00
7C
FC
98
30
64
FC
B8
ENDCHAR
STARTCHAR uni1E92
ENCODING 7826
SWIDTH 618 0
DWIDTH 9 0
BBX 10 13 -1 -3
BITMAP
3FC0
3380
2700
0700
0E00
1C00
3800
3900
7300
FF00
0000
1800
1800
ENDCHAR
STARTCHAR uni1E93
ENCODING 7827
SWIDTH 466 0
DWIDTH 7 0
BBX 6 10 0 -3
BITMAP
7C
FC
98
30
64
FC
B8
00
30
30
ENDCHAR
STARTCHAR uni1E94
ENCODING 7828
SWIDTH 618 0
DWIDTH 9 0
BBX 10 12 -1 -2
BITMAP
3FC0
3380
2700
0700
0E00
1C00
3800
3900
7300
FF00
0000
3E00
ENDCHAR
STARTCHAR uni1E95
ENCODING 7829
SWIDTH 466 0
DWIDTH 7 0
BBX 6 9 0 -2
BITMAP
7C
FC
98
30
64
FC
B8
00
F8
ENDCHAR
STARTCHAR uni1E96
ENCODING 7830
SWIDTH 629 0
DWIDTH 9 0
BBX 9 13 0 -2
BITMAP
7800
3800
3800
3800
7600
7F00
7700
6700
EE00
EE80
E700
0000
3E00
ENDCHAR
STARTCHAR uni1E97
ENCODING 7831
SWIDTH 359 0
DWIDTH 5 0
BBX 5 12 0 0
BITMAP
D8
D8
00
30
70
F8
70
70
E0
E0
E8
70
ENDCHAR
STARTCHAR uni1E98
ENCODING 7832
SWIDTH 795 0
DWIDTH 12 0
BBX 12 11 0 0
BITMAP
0600
0900
0600
0000
F330
7330
7730
E760
E640
EE80
7300
ENDCHAR
STARTCHAR uni1E99
ENCODING 7833
SWIDTH 489 0
DWIDTH 7 0
BBX 8 14 -1 -3
BITMAP
18
24
18
00
7B
3B
3A
3A
3C
18
18
10
E0
C0
ENDCHAR
STARTCHAR uni1EA0
ENCODING 7840
SWIDTH 634 0
DWIDTH 9 0
BBX 10 13 -2 -3
BITMAP
0300
0700
0700
0B00
1300
1380
3F80
4380
4380
E7C0
0000
0C00
0C00
ENDCHAR
STARTCHAR uni1EA1
ENCODING 7841
SWIDTH 596 0
DWIDTH 9 0
BBX 9 10 0 -3
BITMAP
3F00
7700
6700
EE00
EE00
FE80
6700
0000
1800
1800
ENDCHAR
STARTCHAR uni1EA4
ENCODING 7844
SWIDTH 634 0
DWIDTH 9 0
BBX 10 15 -2 0
BITMAP
0300
0600
0000
0300
0580
0000
0300
0700
0B00
0B00
1380
3F80
2380
4380
E7C0
ENDCHAR
STARTCHAR uni1EA5
ENCODING 7845
SWIDTH 596 0
DWIDTH 9 0
BBX 9 13 0 0
BITMAP
0600
0C00
0000
0C00
1600
0000
3F00
7700
6700
EE00
EE00
FE80
6700
ENDCHAR
STARTCHAR uni1EA6
ENCODING 7846
SWIDTH 634 0
DWIDTH 9 0
BBX 10 15 -2 0
BITMAP
0600
0300
0000
0300
0580
0000
0300
0700
0B00
0B00
1380
3F80
2380
4380
E7C0
ENDCHAR
STARTCHAR uni1EA7
ENCODING 7847
SWIDTH 596 0
DWIDTH 9 0
BBX 9 13 0 0
BITMAP
1800
0C00
0000
0C00
1600
0000
3F00
7700
6700
EE00
EE00
FE80
6700
ENDCHAR
STARTCHAR uni1EAA
ENCODING 7850
SWIDTH 634 0
DWIDTH 9 0
BBX 10 15 -2 0
BITMAP
0680
0B00
0000
0300
0580
0000
0300
0700
0B00
0B00
1380
3F80
2380
4380
E7C0
ENDCHAR
STARTCHAR uni1EAB
ENCODING 7851
SWIDTH 596 0
DWIDTH 9 0
BBX 9 13 0 0
BITMAP
0D00
1600
0000
0C00
1600
0000
3F00
7700
6700
EE00
EE00
FE80
6700
ENDCHAR
STARTCHAR uni1EAC
ENCODING 7852
SWIDTH 634 0
DWIDTH 9 0
BBX 10 16 -2 -3
BITMAP
0600
0B00
0000
0300
0700
0700
0B00
1300
1380
3F80
4380
4380
E7C0
0000
0C00
0C00
ENDCHAR
STARTCHAR uni1EAD
ENCODING 7853
SWIDTH 596 0
DWIDTH 9 0
BBX 9 13 0 -3
BITMAP
0C00
1600
0000
3F00
7700
6700
EE00
EE00
FE80
6700
0000
1800
1800
ENDCHAR
STARTCHAR uni1EAE
ENCODING 7854
SWIDTH 634 0
DWIDTH 9 0
BBX 10 16 -2 0
BITMAP
0300
0600
0000
0880
0700
0000
0300
0700
0700
0B00
1300
1380
3F80
4380
4380
E7C0
ENDCHAR
STARTCHAR uni1EAF
ENCODING 7855
SWIDTH 596 0
DWIDTH 9 0
BBX 9 13 0 0
BITMAP
0C00
1800
0000
2200
1C00
0000
3F00
7700
6700
EE00
EE00
FE80
6700
ENDCHAR
STARTCHAR uni1EB0
ENCODING 7856
SWIDTH 634 0
DWIDTH 9 0
BBX 10 16 -2 0
BITMAP
0C00
0600
0000
0880
0700
0000
0300
0700
0700
0B00
1300
1380
3F80
4380
4380
E7C0
ENDCHAR
STARTCHAR uni1EB1
ENCODING 7857
SWIDTH 596 0
DWIDTH 9 0
BBX 9 13 0 0
BITMAP
1800
0C00
0000
2200
1C00
0000
3F00
7700
6700
EE00
EE00
FE80
6700
ENDCHAR
STARTCHAR uni1EB4
ENCODING 7860
SWIDTH 634 0
DWIDTH 9 0
BBX 10 16 -2 0
BITMAP
0680
0B00
0000
0880
0700
0000
0300
0700
0700
0B00
1300
1380
3F80
4380
4380
E7C0
ENDCHAR
STARTCHAR uni1EB5
ENCODING 7861
SWIDTH 596 0
DWIDTH 9 0
BBX 9 13 0 0
BITMAP
1A00
2C00
0000
2200
1C00
0000
3F00
7700
6700
EE00
EE00
FE80
6700
ENDCHAR
STARTCHAR uni1EB6
ENCODING 7862
SWIDTH 634 0
DWIDTH 9 0
BBX 10 16 -2 -3
BITMAP
0880
0700
0000
0300
0700
0700
0B00
1300
1380
3F80
4380
4380
E7C0
0000
0C00
0C00
ENDCHAR
STARTCHAR uni1EB7
ENCODING 7863
SWIDTH 596 0
DWIDTH 9 0
BBX 9 13 0 -3
BITMAP
2200
1C00
0000
3F00
7700
6700
EE00
EE00
FE80
6700
0000
1800
1800
ENDCHAR
STARTCHAR uni1EB8
ENCODING 7864
SWIDTH 622 0
DWIDTH 9 0
BBX 10 13 -1 -3
BITMAP
3FC0
1CC0
1C40
3900
3F00
3900
3800
7080
7180
FF80
0000
0C00
0C00
ENDCHAR
STARTCHAR uni1EB9
ENCODING 7865
SWIDTH 476 0
DWIDTH 7 0
BBX 6 10 0 -3
BITMAP
3C
74
68
F0
E4
E8
70
00
30
30
ENDCHAR
STARTCHAR uni1EBC
ENCODING 7868
SWIDTH 622 0
DWIDTH 9 0
BBX 10 13 -1 0
BITMAP
0D00
1600
0000
3FC0
1CC0
1C40
3900
3F00
3900
3800
7080
7180
FF80
ENDCHAR
STARTCHAR uni1EBD
ENCODING 7869
SWIDTH 476 0
DWIDTH 7 0
BBX 6 10 0 0
BITMAP
34
58
00
3C
74
68
F0
E4
E8
70
ENDCHAR
STARTCHAR uni1EBE
ENCODING 7870
SWIDTH 622 0
DWIDTH 9 0
BBX 10 15 -1 0
BITMAP
0300
0600
0000
0300
0580
0000
3FC0
1CC0
1C40
3900
3F00
3900
7080
7180
FF80
ENDCHAR
STARTCHAR uni1EBF
ENCODING 7871
SWIDTH 476 0
DWIDTH 7 0
BBX 6 13 0 0
BITMAP
0C
18
00
18
2C
00
3C
74
68
F0
E4
E8
70
ENDCHAR
STARTCHAR uni1EC0
ENCODING 7872
SWIDTH 622 0
DWIDTH 9 0
BBX 10 15 -1 0
BITMAP
0C00
0600
0000
0300
0580
0000
3FC0
1CC0
1C40
3900
3F00
3900
7080
7180
FF80
ENDCHAR
STARTCHAR uni1EC1
ENCODING 7873
SWIDTH 476 0
DWIDTH 7 0
BBX 6 13 0 0
BITMAP
30
18
00
18
2C
00
3C
74
68
F0
E4
E8
70
ENDCHAR
STARTCHAR uni1EC4
ENCODING 7876
SWIDTH 622 0
DWIDTH 9 0
BBX 10 15 -1 0
BITMAP
0680
0B00
0000
0300
0580
0000
3FC0
1CC0
1C40
3900
3F00
3900
7080
7180
FF80
ENDCHAR
STARTCHAR uni1EC5
ENCODING 7877
SWIDTH 476 0
DWIDTH 7 0
BBX 6 13 0 0
BITMAP
34
58
00
18
2C
00
3C
74
68
F0
E4
E8
70
ENDCHAR
STARTCHAR uni1EC6
ENCODING 7878
SWIDTH 622 0
DWIDTH 9 0
BBX 10 16 -1 -3
BITMAP
0C00
1600
0000
3FC0
1CC0
1C40
3900
3F00
3900
3800
7080
7180
FF80
0000
0C00
0C00
ENDCHAR
STARTCHAR uni1EC7
ENCODING 7879
SWIDTH 476 0
DWIDTH 7 0
BBX 6 13 0 -3
BITMAP
30
58
00
3C
74
68
F0
E4
E8
70
00
30
30
ENDCHAR
STARTCHAR uni1ECA
ENCODING 7882
SWIDTH 386 0
DWIDTH 6 0
BBX 7 13 -1 -3
BITMAP
3E
1C
1C
38
38
38
38
70
70
F8
00
30
30
ENDCHAR
STARTCHAR uni1ECB
ENCODING 7883
SWIDTH 339 0
DWIDTH 5 0
BBX 5 13 0 -3
BITMAP
38
38
00
F0
70
70
E0
E0
E8
70
00
60
60
ENDCHAR
STARTCHAR uni1ECC
ENCODING 7884
SWIDTH 761 0
DWIDTH 12 0
BBX 11 13 0 -3
BITMAP
0F80
38C0
70E0
70E0
F0E0
E1E0
E1C0
E1C0
6380
3E00
0000
0C00
0C00
ENDCHAR
STARTCHAR uni1ECD
ENCODING 7885
SWIDTH 562 0
DWIDTH 8 0
BBX 8 10 0 -3
BITMAP
3E
77
67
E7
E6
EE
7C
00
18
18
ENDCHAR
STARTCHAR uni1ED0
ENCODING 7888
SWIDTH 761 0
DWIDTH 12 0
BBX 11 15 0 0
BITMAP
0300
0600
0000
0300
0580
0000
0F80
38C0
70E0
70E0
F1E0
E1C0
E1C0
6380
3E00
ENDCHAR
STARTCHAR uni1ED1
ENCODING 7889
SWIDTH 562 0
DWIDTH 8 0
BBX 8 13 0 0
BITMAP
06
0C
00
0C
16
00
3E
77
67
E7
E6
EE
7C
ENDCHAR
STARTCHAR uni1ED2
ENCODING 7890
SWIDTH 761 0
DWIDTH 12 0
BBX 11 15 0 0
BITMAP
0600
0300
0000
0300
0580
0000
0F80
38C0
70E0
70E0
F1E0
E1C0
E1C0
6380
3E00
ENDCHAR
STARTCHAR uni1ED3
ENCODING 7891
SWIDTH 562 0
DWIDTH 8 0
BBX 8 13 0 0
BITMAP
18
0C
00
0C
16
00
3E
77
67
E7
E6
EE
7C
ENDCHAR
STARTCHAR uni1ED6
ENCODING 7894
SWIDTH 761 0
DWIDTH 12 0
BBX 11 15 0 0
BITMAP
0680
0B00
0000
0300
0580
0000
0F80
38C0
70E0
70E0
F1E0
E1C0
E1C0
6380
3E00
ENDCHAR
STARTCHAR uni1ED7
ENCODING 7895
SWIDTH 562 0
DWIDTH 8 0
BBX 8 13 0 0
BITMAP
1A
2C
00
0C
16
00
3E
77
67
E7
E6
EE
7C
ENDCHAR
STARTCHAR uni1ED8
ENCODING 7896
SWIDTH 761 0
DWIDTH 12 0
BBX 11 16 0 -3
BITMAP
0600
0B00
0000
0F80
38C0
70E0
70E0
F0E0
E1E0
E1C0
E1C0
6380
3E00
0000
0C00
0C00
ENDCHAR
STARTCHAR uni1ED9
ENCODING 7897
SWIDTH 562 0
DWIDTH 8 0
BBX 8 13 0 -3
BITMAP
18
2C
00
3E
77
67
E7
E6
EE
7C
00
18
18
ENDCHAR
STARTCHAR uni1EDA
ENCODING 7898
SWIDTH 761 0
DWIDTH 12 0
BBX 13 13 0 0
BITMAP
0180
0300
0000
0F98
38D8
70F0
70E0
F0E0
E1E0
E1C0
E1C0
6380
3E00
ENDCHAR
STARTCHAR uni1EDB
ENCODING 7899
SWIDTH 562 0
DWIDTH 8 0
BBX 11 10 0 0
BITMAP
0300
0600
0000
3E60
7760
6740
E780
E600
EE00
7C00
ENDCHAR
STARTCHAR uni1EDC
ENCODING 7900
SWIDTH 761 0
DWIDTH 12 0
BBX 13 13 0 0
BITMAP
0600
0300
0000
0F98
38D8
70F0
70E0
F0E0
E1E0
E1C0
E1C0
6380
3E00
ENDCHAR
STARTCHAR uni1EDD
ENCODING 7901
SWIDTH 562 0
DWIDTH 8 0
BBX 11 10 0 0
BITMAP
0C00
0600
0000
3E60
7760
6740
E780
E600
EE00
7C00
ENDCHAR
STARTCHAR uni1EE0
ENCODING 7904
SWIDTH 761 0
DWIDTH 12 0
BBX 13 13 0 0
BITMAP
0340
0580
0000
0F98
38D8
70F0
70E0
F0E0
E1E0
E1C0
E1C0
6380
3E00
ENDCHAR
STARTCHAR uni1EE1
ENCODING 7905
SWIDTH 562 0
DWIDTH 8 0
BBX 11 10 0 0
BITMAP
0680
0B00
0000
3E60
7760
6740
E780
E600
EE00
7C00
ENDCHAR
STARTCHAR uni1EE2
ENCODING 7906
SWIDTH 761 0
DWIDTH 12 0
BBX 13 13 0 -3
BITMAP
0F98
38D8
70F0
70E0
F0E0
E1E0
E1C0
E1C0
6380
3E00
0000
0C00
0C00
ENDCHAR
STARTCHAR uni1EE3
ENCODING 7907
SWIDTH 562 0
DWIDTH 8 0
BBX 11 10 0 -3
BITMAP
3E60
7760
6740
E780
E600
EE00
7C00
0000
1800
1800
ENDCHAR
STARTCHAR uni1EE4
ENCODING 7908
SWIDTH 776 0
DWIDTH 12 0
BBX 12 13 0 -3
BITMAP
7DF0
38E0
38E0
71C0
71C0
71C0
E380
E380
E380
7F00
0000
0C00
0C00
ENDCHAR
STARTCHAR uni1EE5
ENCODING 7909
SWIDTH 634 0
DWIDTH 9 0
BBX 9 10 0 -3
BITMAP
F700
7700
7700
EE00
EE00
FE80
6700
0000
1800
1800
ENDCHAR
STARTCHAR uni1EE8
ENCODING 7912
SWIDTH 776 0
DWIDTH 12 0
BBX 14 13 0 0
BITMAP
0180
0300
0000
7DFC
38EC
38E8
71D0
71C0
71C0
E380
E380
E380
7F00
ENDCHAR
STARTCHAR uni1EE9
ENCODING 7913
SWIDTH 634 0
DWIDTH 9 0
BBX 11 10 0 0
BITMAP
0600
0C00
0000
F760
7760
7740
EE80
EE00
FE80
6700
ENDCHAR
STARTCHAR uni1EEA
ENCODING 7914
SWIDTH 776 0
DWIDTH 12 0
BBX 14 13 0 0
BITMAP
0300
0180
0000
7DFC
38EC
38E8
71D0
71C0
71C0
E380
E380
E380
7F00
ENDCHAR
STARTCHAR uni1EEB
ENCODING 7915
SWIDTH 634 0
DWIDTH 9 0
BBX 11 10 0 0
BITMAP
0C00
0600
0000
F760
7760
7740
EE80
EE00
FE80
6700
ENDCHAR
STARTCHAR uni1EEE
ENCODING 7918
SWIDTH 776 0
DWIDTH 12 0
BBX 14 13 0 0
BITMAP
0340
0580
0000
7DFC
38EC
38E8
71D0
71C0
71C0
E380
E380
E380
7F00
ENDCHAR
STARTCHAR uni1EEF
ENCODING 7919
SWIDTH 634 0
DWIDTH 9 0
BBX 11 10 0 0
BITMAP
0D00
1600
0000
F760
7760
7740
EE80
EE00
FE80
6700
ENDCHAR
STARTCHAR uni1EF0
ENCODING 7920
SWIDTH 776 0
DWIDTH 12 0
BBX 14 13 0 -3
BITMAP
7DFC
38EC
38E8
71D0
71C0
71C0
E380
E380
E380
7F00
0000
0C00
0C00
ENDCHAR
STARTCHAR uni1EF1
ENCODING 7921
SWIDTH 634 0
DWIDTH 9 0
BBX 11 10 0 -3
BITMAP
F760
7760
7740
EE80
EE00
FE80
6700
0000
0C00
0C00
ENDCHAR
STARTCHAR Ygrave
ENCODING 7922
SWIDTH 622 0
DWIDTH 9 0
BBX 9 13 1 0
BITMAP
3000
1800
0000
FB80
7100
7200
7400
3800
3800
3800
7000
7000
F800
ENDCHAR
STARTCHAR ygrave
ENCODING 7923
SWIDTH 489 0
DWIDTH 7 0
BBX 8 13 -1 -3
BITMAP
18
0C
00
7B
3B
3A
3A
3C
18
18
10
E0
C0
ENDCHAR
STARTCHAR uni1EF4
ENCODING 7924
SWIDTH 622 0
DWIDTH 9 0
BBX 9 13 1 -3
BITMAP
FB80
7100
7200
7400
3800
3800
3800
7000
7000
F800
0000
3000
3000
ENDCHAR
STARTCHAR uni1EF5
ENCODING 7925
SWIDTH 489 0
DWIDTH 7 0
BBX 8 13 -1 -6
BITMAP
7B
3B
3A
3A
3C
18
18
10
E0
C0
00
60
60
ENDCHAR
STARTCHAR uni1EF8
ENCODING 7928
SWIDTH 622 0
DWIDTH 9 0
BBX 9 13 1 0
BITMAP
1A00
2C00
0000
FB80
7100
7200
7400
3800
3800
3800
7000
7000
F800
ENDCHAR
STARTCHAR uni1EF9
ENCODING 7929
SWIDTH 489 0
DWIDTH 7 0
BBX 8 13 -1 -3
BITMAP
1A
2C
00
7B
3B
3A
3A
3C
18
18
10
E0
C0
ENDCHAR
STARTCHAR uni2000
ENCODING 8192
SWIDTH 500 0
DWIDTH 7 0
BBX 1 1 0 0
BITMAP
00
ENDCHAR
STARTCHAR uni2001
ENCODING 8193
SWIDTH 1000 0
DWIDTH 15 0
BBX 1 1 0 0
BITMAP
00
ENDCHAR
STARTCHAR uni2002
ENCODING 8194
SWIDTH 500 0
DWIDTH 7 0
BBX 1 1 0 0
BITMAP
00
ENDCHAR
STARTCHAR uni2003
ENCODING 8195
SWIDTH 1000 0
DWIDTH 15 0
BBX 1 1 0 0
BITMAP
00
ENDCHAR
STARTCHAR uni2004
ENCODING 8196
SWIDTH 333 0
DWIDTH 5 0
BBX 1 1 0 0
BITMAP
00
ENDCHAR
STARTCHAR uni2005
ENCODING 8197
SWIDTH 250 0
DWIDTH 4 0
BBX 1 1 0 0
BITMAP
00
ENDCHAR
STARTCHAR uni2006
ENCODING 8198
SWIDTH 167 0
DWIDTH 2 0
BBX 1 1 0 0
BITMAP
00
ENDCHAR
STARTCHAR uni2007
ENCODING 8199
SWIDTH 560 0
DWIDTH 8 0
BBX 1 1 0 0
BITMAP
00
ENDCHAR
STARTCHAR uni2008
ENCODING 8200
SWIDTH 280 0
DWIDTH 4 0
BBX 1 1 0 0
BITMAP
00
ENDCHAR
STARTCHAR uni2009
ENCODING 8201
SWIDTH 200 0
DWIDTH 3 0
BBX 1 1 0 0
BITMAP
00
ENDCHAR
STARTCHAR uni200A
ENCODING 8202
SWIDTH 100 0
DWIDTH 1 0
BBX 1 1 0 0
BITMAP
00
ENDCHAR
STARTCHAR uni200B
ENCODING 8203
SWIDTH 0 0
DWIDTH 0 0
BBX 1 1 0 0
BITMAP
00
ENDCHAR
STARTCHAR uni2010
ENCODING 8208
SWIDTH 392 0
DWIDTH 6 0
BBX 4 1 1 3
BITMAP
F0
ENDCHAR
STARTCHAR uni2011
ENCODING 8209
SWIDTH 392 0
DWIDTH 6 0
BBX 4 1 1 3
BITMAP
F0
ENDCHAR
STARTCHAR figuredash
ENCODING 8210
SWIDTH 500 0
DWIDTH 7 0
BBX 7 1 0 3
BITMAP
FE
ENDCHAR
STARTCHAR endash
ENCODING 8211
SWIDTH 500 0
DWIDTH 7 0
BBX 7 1 0 3
BITMAP
FE
ENDCHAR
STARTCHAR emdash
ENCODING 8212
SWIDTH 1000 0
DWIDTH 14 0
BBX 14 1 0 3
BITMAP
FFFC
ENDCHAR
STARTCHAR afii00208
ENCODING 8213
SWIDTH 1000 0
DWIDTH 14 0
BBX 14 1 0 3
BITMAP
FFFC
ENDCHAR
STARTCHAR quoteleft
ENCODING 8216
SWIDTH 246 0
DWIDTH 4 0
BBX 3 4 1 6
BITMAP
20
40
C0
C0
ENDCHAR
STARTCHAR quoteright
ENCODING 8217
SWIDTH 246 0
DWIDTH 4 0
BBX 3 4 0 6
BITMAP
60
60
40
80
ENDCHAR
STARTCHAR quotesinglbase
ENCODING 8218
SWIDTH 246 0
DWIDTH 4 0
BBX 3 4 -1 -2
BITMAP
60
60
40
80
ENDCHAR
STARTCHAR quotereversed
ENCODING 8219
SWIDTH 246 0
DWIDTH 4 0
BBX 3 4 0 6
BITMAP
C0
C0
40
20
ENDCHAR
STARTCHAR quotedblleft
ENCODING 8220
SWIDTH 455 0
DWIDTH 7 0
BBX 6 4 1 6
BITMAP
24
48
D8
D8
ENDCHAR
STARTCHAR quotedblright
ENCODING 8221
SWIDTH 455 0
DWIDTH 7 0
BBX 6 4 0 6
BITMAP
6C
6C
48
90
ENDCHAR
STARTCHAR quotedblbase
ENCODING 8222
SWIDTH 455 0
DWIDTH 7 0
BBX 6 4 -1 -2
BITMAP
6C
6C
48
90
ENDCHAR
STARTCHAR uni201F
ENCODING 8223
SWIDTH 455 0
DWIDTH 7 0
BBX 6 4 0 6
BITMAP
D8
D8
48
24
ENDCHAR
STARTCHAR dagger
ENCODING 8224
SWIDTH 514 0
DWIDTH 7 0
BBX 5 12 1 -2
BITMAP
30
30
20
F8
60
60
60
C0
C0
C0
80
80
ENDCHAR
STARTCHAR daggerdbl
ENCODING 8225
SWIDTH 490 0
DWIDTH 7 0
BBX 6 12 0 -2
BITMAP
18
18
10
7C
10
30
30
20
F8
20
60
60
ENDCHAR
STARTCHAR bullet
ENCODING 8226
SWIDTH 465 0
DWIDTH 9 0
BBX 5 5 2 2
BITMAP
70
F8
F8
F8
70
ENDCHAR
STARTCHAR ellipsis
ENCODING 8230
SWIDTH 1000 0
DWIDTH 15 0
BBX 12 2 1 0
BITMAP
C630
C630
ENDCHAR
STARTCHAR perthousand
ENCODING 8240
SWIDTH 1297 0
DWIDTH 19 0
BBX 18 10 0 0
BITMAP
384000
4F8000
CD0000
CA0000
720000
04E380
0934C0
133CC0
232C80
41C700
ENDCHAR
STARTCHAR guilsinglleft
ENCODING 8249
SWIDTH 360 0
DWIDTH 5 0
BBX 4 6 0 0
BITMAP
10
20
40
C0
40
20
ENDCHAR
STARTCHAR guilsinglright
ENCODING 8250
SWIDTH 360 0
DWIDTH 5 0
BBX 4 6 0 0
BITMAP
40
20
30
20
40
80
ENDCHAR
STARTCHAR fraction
ENCODING 8260
SWIDTH 100 0
DWIDTH 2 0
BBX 6 10 -2 0
BITMAP
04
04
08
10
10
20
20
40
80
80
ENDCHAR
STARTCHAR oneinferior
ENCODING 8321
SWIDTH 402 0
DWIDTH 6 0
BBX 4 6 1 -3
BITMAP
70
30
30
60
60
F0
ENDCHAR
STARTCHAR twoinferior
ENCODING 8322
SWIDTH 402 0
DWIDTH 6 0
BBX 5 6 1 -3
BITMAP
70
D8
30
60
C0
F0
ENDCHAR
STARTCHAR threeinferior
ENCODING 8323
SWIDTH 402 0
DWIDTH 6 0
BBX 6 6 0 -3
BITMAP
38
0C
38
18
D8
70
ENDCHAR
STARTCHAR uni20A5
ENCODING 8357
SWIDTH 914 0
DWIDTH 13 0
BBX 13 10 0 -1
BITMAP
0180
0180
F7E0
7FF0
7770
7770
EFE0
EEE8
EE70
0600
ENDCHAR
STARTCHAR uni20A6
ENCODING 8358
SWIDTH 741 0
DWIDTH 11 0
BBX 12 10 -1 0
BITMAP
3C70
1C20
1E20
3FC0
2F40
27C0
3FC0
4380
4380
E180
ENDCHAR
STARTCHAR uni20A9
ENCODING 8361
SWIDTH 920 0
DWIDTH 14 0
BBX 15 10 0 0
BITMAP
F9CE
71C4
71C4
7FF8
73C8
34D0
3FF0
38E0
38E0
30C0
ENDCHAR
STARTCHAR Euro
ENCODING 8364
SWIDTH 672 0
DWIDTH 10 0
BBX 11 10 -2 0
BITMAP
03E0
0E60
1C20
FF00
3800
3800
FF00
3840
18C0
0F80
ENDCHAR
STARTCHAR uni20AD
ENCODING 8365
SWIDTH 688 0
DWIDTH 12 0
BBX 12 10 0 0
BITMAP
3EF0
1C60
1C80
3900
FFF0
3F00
3B80
7380
71C0
F9E0
ENDCHAR
STARTCHAR uni2103
ENCODING 8451
SWIDTH 1028 0
DWIDTH 16 0
BBX 14 10 1 0
BITMAP
607C
91CC
9384
6380
0700
0700
0700
0708
0318
01F0
ENDCHAR
STARTCHAR uni2109
ENCODING 8457
SWIDTH 941 0
DWIDTH 15 0
BBX 14 10 1 0
BITMAP
63FC
91CC
91C4
6390
03F0
0390
0380
0700
0700
0F80
ENDCHAR
STARTCHAR trademark
ENCODING 8482
SWIDTH 1100 0
DWIDTH 16 0
BBX 16 6 0 4
BITMAP
FF87
B5CE
31EE
3176
3126
7B8F
ENDCHAR
STARTCHAR uni212A
ENCODING 8490
SWIDTH 688 0
DWIDTH 12 0
BBX 12 10 0 0
BITMAP
3EF0
1C60
1C80
3900
3B00
3F00
3B80
7380
71C0
F9E0
ENDCHAR
STARTCHAR uni212B
ENCODING 8491
SWIDTH 634 0
DWIDTH 9 0
BBX 10 12 -2 0
BITMAP
0300
0480
0300
0300
0700
0B00
0B00
1380
3F80
2380
4380
E7C0
ENDCHAR
STARTCHAR uni2132
ENCODING 8498
SWIDTH 585 0
DWIDTH 9 0
BBX 10 10 -1 0
BITMAP
07C0
0380
0380
0700
2700
3F00
2700
8E00
CE00
FF00
ENDCHAR
STARTCHAR minus
ENCODING 8722
SWIDTH 600 0
DWIDTH 9 0
BBX 8 1 0 3
BITMAP
FF
ENDCHAR
STARTCHAR fraction
ENCODING 8725
SWIDTH 100 0
DWIDTH 2 0
BBX 6 10 -2 0
BITMAP
04
04
08
10
10
20
20
40
80
80
ENDCHAR
STARTCHAR periodcentered
ENCODING 8729
SWIDTH 280 0
DWIDTH 4 0
BBX 4 3 0 3
BITMAP
60
F0
60
ENDCHAR
STARTCHAR uni2236
ENCODING 8758
SWIDTH 280 0
DWIDTH 4 0
BBX 3 7 0 0
BITMAP
60
60
00
00
00
C0
C0
ENDCHAR
STARTCHAR uni2259
ENCODING 8793
SWIDTH 600 0
DWIDTH 9 0
BBX 8 7 0 2
BITMAP
18
2C
00
FF
00
00
FF
ENDCHAR
STARTCHAR uni225A
ENCODING 8794
SWIDTH 600 0
DWIDTH 9 0
BBX 8 7 0 2
BITMAP
34
18
00
FF
00
00
FF
ENDCHAR
STARTCHAR notequal
ENCODING 8800
SWIDTH 600 0
DWIDTH 9 0
BBX 8 10 0 -1
BITMAP
0C
0C
0C
FF
18
18
FF
30
30
30
ENDCHAR
STARTCHAR equivalence
ENCODING 8801
SWIDTH 600 0
DWIDTH 9 0
BBX 8 5 0 1
BITMAP
FF
00
FF
00
FF
ENDCHAR
STARTCHAR uni2262
ENCODING 8802
SWIDTH 600 0
DWIDTH 9 0
BBX 8 10 0 -1
BITMAP
0C
0C
0C
FF
18
FF
18
FF
30
30
ENDCHAR
STARTCHAR lessequal
ENCODING 8804
SWIDTH 600 0
DWIDTH 9 0
BBX 7 9 1 -2
BITMAP
06
1E
78
E0
78
1E
06
00
FE
ENDCHAR
STARTCHAR greaterequal
ENCODING 8805
SWIDTH 600 0
DWIDTH 9 0
BBX 7 9 1 -2
BITMAP
C0
F0
3C
0E
3C
F0
C0
00
FE
ENDCHAR
STARTCHAR uni226E
ENCODING 8814
SWIDTH 600 0
DWIDTH 9 0
BBX 7 10 1 -1
BITMAP
0C
0C
0E
1E
78
F8
78
3E
36
30
ENDCHAR
STARTCHAR uni226F
ENCODING 8815
SWIDTH 600 0
DWIDTH 9 0
BBX 7 10 1 -1
BITMAP
0C
0C
CC
F8
3C
1E
3C
F0
F0
30
ENDCHAR
STARTCHAR uni2270
ENCODING 8816
SWIDTH 600 0
DWIDTH 9 0
BBX 7 10 1 -2
BITMAP
0C
0E
1E
78
F8
78
1E
36
30
FE
ENDCHAR
STARTCHAR uni2271
ENCODING 8817
SWIDTH 600 0
DWIDTH 9 0
BBX 7 10 1 -2
BITMAP
0C
CC
FC
3C
1E
3C
F8
F0
30
FE
ENDCHAR
STARTCHAR fi
ENCODING -1
SWIDTH 651 0
DWIDTH 9 0
BBX 12 14 -2 -3
BITMAP
03C0
06E0
0E60
0E00
3FE0
1CE0
1CE0
1DC0
39C0
39D0
38E0
3800
B000
E000
ENDCHAR
STARTCHAR fl
ENCODING -1
SWIDTH 652 0
DWIDTH 10 0
BBX 12 14 -2 -3
BITMAP
03F0
0770
0E70
0EE0
3FE0
1CE0
1CE0
1DC0
39C0
39D0
38E0
3800
B000
E000
ENDCHAR
ENDFONT
